<svg xmlns="http://www.w3.org/2000/svg" viewBox="0 0 383.16 302.31"><defs><style>.cls-1{fill:#fefefe;}</style></defs><title>4041</title><g id="Layer_2" data-name="Layer 2"><g id="Layer_1-2" data-name="Layer 1"><path class="cls-1" d="M0,239.44c4.1-9.58,12.51-8.55,20.77-8.05-5.16-17.22-2.61-34.57-2.74-51.72-.36-46.76-.15-93.53-.11-140.29,0-20.54,12.82-35.64,33-39A41.58,41.58,0,0,1,57.59,0Q191.53,0,325.46,0c23.42,0,39.71,16.27,39.72,39.7q0,87.36,0,174.72A44.17,44.17,0,0,1,362,231a2.78,2.78,0,0,1-.11-2.57c2.94-8.36,2.07-17,2.07-25.59q.07-81.56,0-163.11C364,17,348.15,1.16,325.35,1.15q-133.94,0-267.86,0C35,1.16,19.11,17.08,19.11,39.6q0,86.79,0,173.58a47.49,47.49,0,0,0,1.82,14c1.2,3.94.43,4.88-3.74,5.11-1.75.1-3.49,0-5.24.07a10.85,10.85,0,0,0-9.19,4.88C2.08,238.26,1.56,239.54,0,239.44Z"/><path class="cls-1" d="M338.22,301.13a58.08,58.08,0,0,1-12.63,1.18q-134.11,0-268.24,0c-28.77,0-51.44-18.91-56.61-47.08-.11-.59,0-1.26-.74-1.55,2.32.5,2,2.64,2.38,4.17,4.65,18.92,16.1,32,33.93,39.56a46.5,46.5,0,0,0,18.22,3.73q136.92.06,273.84,0c25.63,0,49.05-20.66,52.78-46a63,63,0,0,0,.81-10.8c-.19-7.93-4.07-11.79-12.12-11.92-1.75,0-3.49,0-5.23-.15a3.74,3.74,0,0,1-2.41-1c3.43,0,6.52-.07,9.62,0a11.26,11.26,0,0,1,11.28,11.1C384.34,271.1,366.11,295,338.22,301.13Z"/><path d="M141.7,157.3c-2.29-.57-2.61-1.55-2.57-3.54.11-6.36,0-12.72,0-19.07h0q0-4.86,0-9.72c0-3.24.05-6.49-.09-9.72C138.76,107.49,134,101,127.47,99s-13.61.9-18.21,7.26c-1.09,1.51-2.11,3.08-3.08,4.67-10.07,16.44-19.39,33.31-28.71,50.17-5.17,9.35-.23,17.86,10.4,17.95,8.6.07,17.2.08,25.8,0,2.22,0,3.15.47,3,2.89-.23,3.22-.16,6.47-.12,9.71.09,6.83,4.56,11.69,10.84,11.87s11.26-4.69,11.57-11.61c.15-3.24.19-6.49.07-9.72-.07-2.14.39-3.12,2.8-3.72a11,11,0,0,0-.1-21.16Zm-26.76-.66h-9.29c3.74-6.62,7.08-12.53,10.43-18.44l.62,0q0,8.58,0,17.16C116.71,156.69,115.83,156.64,114.94,156.64Zm111.5-30.52a14.14,14.14,0,0,0-.4-2.2c-2.74-16.5-17.58-28.9-34.55-28.87A35.09,35.09,0,0,0,157,124c-1.37,8.31-.22,16.68-.58,22.71,0,9.29-.21,16.28,0,23.25a35.21,35.21,0,0,0,32.68,33.45c18,1.12,34.54-11.42,36.74-29.15C227.9,158.34,226.65,142.19,226.44,126.12ZM204.23,168c0,7.58-5.67,13.21-12.86,13.11-7-.09-12.42-5.69-12.5-13.1-.07-6.35,0-12.71,0-19.06,0-6.1,0-12.2,0-18.3.09-7.43,5.46-13,12.49-13.11,7.2-.09,12.82,5.52,12.87,13.1Q204.35,149.26,204.23,168Zm95.49-10.68c-2.36-.61-2.51-1.76-2.49-3.67.08-6.48,0-13,0-19.44h-.15c0-6.73.34-13.48-.1-20.18s-3.88-12.09-10.52-14.55-12.2-.3-17,4.4a32.62,32.62,0,0,0-4.64,6.3c-10.21,16.51-19.16,33.73-29.06,50.4-5.49,9.27.27,19.4,11.16,18.67,8.31-.57,16.69,0,25-.16,2.09,0,2.89.52,2.74,2.7-.19,2.73-.07,5.48-.08,8.22,0,8.3,4.19,13.46,11.07,13.55s11.33-5.07,11.37-13.27c0-2.87.08-5.73,0-8.6,0-1.66.24-2.49,2.25-3a10.7,10.7,0,0,0,8.38-10.56C307.78,162.94,304.85,158.6,299.72,157.27Zm-25-1.64c0,1.07-.89,1-1.63,1h-9.32c3.63-6.4,6.95-12.27,10.27-18.14l.69.06C274.77,144.24,274.79,149.94,274.76,155.63Zm25,1.64c-2.36-.61-2.51-1.76-2.49-3.67.08-6.48,0-13,0-19.44h-.15c0-6.73.34-13.48-.1-20.18s-3.88-12.09-10.52-14.55-12.2-.3-17,4.4a32.62,32.62,0,0,0-4.64,6.3c-10.21,16.51-19.16,33.73-29.06,50.4-5.49,9.27.27,19.4,11.16,18.67,8.31-.57,16.69,0,25-.16,2.09,0,2.89.52,2.74,2.7-.19,2.73-.07,5.48-.08,8.22,0,8.3,4.19,13.46,11.07,13.55s11.33-5.07,11.37-13.27c0-2.87.08-5.73,0-8.6,0-1.66.24-2.49,2.25-3a10.7,10.7,0,0,0,8.38-10.56C307.78,162.94,304.85,158.6,299.72,157.27Zm-25-1.64c0,1.07-.89,1-1.63,1h-9.32c3.63-6.4,6.95-12.27,10.27-18.14l.69.06C274.77,144.24,274.79,149.94,274.76,155.63Zm-48.32-29.51a14.14,14.14,0,0,0-.4-2.2c-2.74-16.5-17.58-28.9-34.55-28.87A35.09,35.09,0,0,0,157,124c-1.37,8.31-.22,16.68-.58,22.71,0,9.29-.21,16.28,0,23.25a35.21,35.21,0,0,0,32.68,33.45c18,1.12,34.54-11.42,36.74-29.15C227.9,158.34,226.65,142.19,226.44,126.12ZM204.23,168c0,7.58-5.67,13.21-12.86,13.11-7-.09-12.42-5.69-12.5-13.1-.07-6.35,0-12.71,0-19.06,0-6.1,0-12.2,0-18.3.09-7.43,5.46-13,12.49-13.11,7.2-.09,12.82,5.52,12.87,13.1Q204.35,149.26,204.23,168ZM141.7,157.3c-2.29-.57-2.61-1.55-2.57-3.54.11-6.36,0-12.72,0-19.07h0q0-4.86,0-9.72c0-3.24.05-6.49-.09-9.72C138.76,107.49,134,101,127.47,99s-13.61.9-18.21,7.26c-1.09,1.51-2.11,3.08-3.08,4.67-10.07,16.44-19.39,33.31-28.71,50.17-5.17,9.35-.23,17.86,10.4,17.95,8.6.07,17.2.08,25.8,0,2.22,0,3.15.47,3,2.89-.23,3.22-.16,6.47-.12,9.71.09,6.83,4.56,11.69,10.84,11.87s11.26-4.69,11.57-11.61c.15-3.24.19-6.49.07-9.72-.07-2.14.39-3.12,2.8-3.72a11,11,0,0,0-.1-21.16Zm-26.76-.66h-9.29c3.74-6.62,7.08-12.53,10.43-18.44l.62,0q0,8.58,0,17.16C116.71,156.69,115.83,156.64,114.94,156.64Zm26.76.66c-2.29-.57-2.61-1.55-2.57-3.54.11-6.36,0-12.72,0-19.07h0q0-4.86,0-9.72c0-3.24.05-6.49-.09-9.72C138.76,107.49,134,101,127.47,99s-13.61.9-18.21,7.26c-1.09,1.51-2.11,3.08-3.08,4.67-10.07,16.44-19.39,33.31-28.71,50.17-5.17,9.35-.23,17.86,10.4,17.95,8.6.07,17.2.08,25.8,0,2.22,0,3.15.47,3,2.89-.23,3.22-.16,6.47-.12,9.71.09,6.83,4.56,11.69,10.84,11.87s11.26-4.69,11.57-11.61c.15-3.24.19-6.49.07-9.72-.07-2.14.39-3.12,2.8-3.72a11,11,0,0,0-.1-21.16Zm-26.76-.66h-9.29c3.74-6.62,7.08-12.53,10.43-18.44l.62,0q0,8.58,0,17.16C116.71,156.69,115.83,156.64,114.94,156.64Zm111.5-30.52a14.14,14.14,0,0,0-.4-2.2c-2.74-16.5-17.58-28.9-34.55-28.87A35.09,35.09,0,0,0,157,124c-1.37,8.31-.22,16.68-.58,22.71,0,9.29-.21,16.28,0,23.25a35.21,35.21,0,0,0,32.68,33.45c18,1.12,34.54-11.42,36.74-29.15C227.9,158.34,226.65,142.19,226.44,126.12ZM204.23,168c0,7.58-5.67,13.21-12.86,13.11-7-.09-12.42-5.69-12.5-13.1-.07-6.35,0-12.71,0-19.06,0-6.1,0-12.2,0-18.3.09-7.43,5.46-13,12.49-13.11,7.2-.09,12.82,5.52,12.87,13.1Q204.35,149.26,204.23,168Zm95.49-10.68c-2.36-.61-2.51-1.76-2.49-3.67.08-6.48,0-13,0-19.44h-.15c0-6.73.34-13.48-.1-20.18s-3.88-12.09-10.52-14.55-12.2-.3-17,4.4a32.62,32.62,0,0,0-4.64,6.3c-10.21,16.51-19.16,33.73-29.06,50.4-5.49,9.27.27,19.4,11.16,18.67,8.31-.57,16.69,0,25-.16,2.09,0,2.89.52,2.74,2.7-.19,2.73-.07,5.48-.08,8.22,0,8.3,4.19,13.46,11.07,13.55s11.33-5.07,11.37-13.27c0-2.87.08-5.73,0-8.6,0-1.66.24-2.49,2.25-3a10.7,10.7,0,0,0,8.38-10.56C307.78,162.94,304.85,158.6,299.72,157.27Zm-25-1.64c0,1.07-.89,1-1.63,1h-9.32c3.63-6.4,6.95-12.27,10.27-18.14l.69.06C274.77,144.24,274.79,149.94,274.76,155.63Zm25,1.64c-2.36-.61-2.51-1.76-2.49-3.67.08-6.48,0-13,0-19.44h-.15c0-6.73.34-13.48-.1-20.18s-3.88-12.09-10.52-14.55-12.2-.3-17,4.4a32.62,32.62,0,0,0-4.64,6.3c-10.21,16.51-19.16,33.73-29.06,50.4-5.49,9.27.27,19.4,11.16,18.67,8.31-.57,16.69,0,25-.16,2.09,0,2.89.52,2.74,2.7-.19,2.73-.07,5.48-.08,8.22,0,8.3,4.19,13.46,11.07,13.55s11.33-5.07,11.37-13.27c0-2.87.08-5.73,0-8.6,0-1.66.24-2.49,2.25-3a10.7,10.7,0,0,0,8.38-10.56C307.78,162.94,304.85,158.6,299.72,157.27Zm-25-1.64c0,1.07-.89,1-1.63,1h-9.32c3.63-6.4,6.95-12.27,10.27-18.14l.69.06C274.77,144.24,274.79,149.94,274.76,155.63Zm-48.32-29.51a14.14,14.14,0,0,0-.4-2.2c-2.74-16.5-17.58-28.9-34.55-28.87A35.09,35.09,0,0,0,157,124c-1.37,8.31-.22,16.68-.58,22.71,0,9.29-.21,16.28,0,23.25a35.21,35.21,0,0,0,32.68,33.45c18,1.12,34.54-11.42,36.74-29.15C227.9,158.34,226.65,142.19,226.44,126.12ZM204.23,168c0,7.58-5.67,13.21-12.86,13.11-7-.09-12.42-5.69-12.5-13.1-.07-6.35,0-12.71,0-19.06,0-6.1,0-12.2,0-18.3.09-7.43,5.46-13,12.49-13.11,7.2-.09,12.82,5.52,12.87,13.1Q204.35,149.26,204.23,168ZM141.7,157.3c-2.29-.57-2.61-1.55-2.57-3.54.11-6.36,0-12.72,0-19.07h0q0-4.86,0-9.72c0-3.24.05-6.49-.09-9.72C138.76,107.49,134,101,127.47,99s-13.61.9-18.21,7.26c-1.09,1.51-2.11,3.08-3.08,4.67-10.07,16.44-19.39,33.31-28.71,50.17-5.17,9.35-.23,17.86,10.4,17.95,8.6.07,17.2.08,25.8,0,2.22,0,3.15.47,3,2.89-.23,3.22-.16,6.47-.12,9.71.09,6.83,4.56,11.69,10.84,11.87s11.26-4.69,11.57-11.61c.15-3.24.19-6.49.07-9.72-.07-2.14.39-3.12,2.8-3.72a11,11,0,0,0-.1-21.16Zm-26.76-.66h-9.29c3.74-6.62,7.08-12.53,10.43-18.44l.62,0q0,8.58,0,17.16C116.71,156.69,115.83,156.64,114.94,156.64Zm26.76.66c-2.29-.57-2.61-1.55-2.57-3.54.11-6.36,0-12.72,0-19.07h0q0-4.86,0-9.72c0-3.24.05-6.49-.09-9.72C138.76,107.49,134,101,127.47,99s-13.61.9-18.21,7.26c-1.09,1.51-2.11,3.08-3.08,4.67-10.07,16.44-19.39,33.31-28.71,50.17-5.17,9.35-.23,17.86,10.4,17.95,8.6.07,17.2.08,25.8,0,2.22,0,3.15.47,3,2.89-.23,3.22-.16,6.47-.12,9.71.09,6.83,4.56,11.69,10.84,11.87s11.26-4.69,11.57-11.61c.15-3.24.19-6.49.07-9.72-.07-2.14.39-3.12,2.8-3.72a11,11,0,0,0-.1-21.16Zm-26.76-.66h-9.29c3.74-6.62,7.08-12.53,10.43-18.44l.62,0q0,8.58,0,17.16C116.71,156.69,115.83,156.64,114.94,156.64Zm111.5-30.52a14.14,14.14,0,0,0-.4-2.2c-2.74-16.5-17.58-28.9-34.55-28.87A35.09,35.09,0,0,0,157,124c-1.37,8.31-.22,16.68-.58,22.71,0,9.29-.21,16.28,0,23.25a35.21,35.21,0,0,0,32.68,33.45c18,1.12,34.54-11.42,36.74-29.15C227.9,158.34,226.65,142.19,226.44,126.12ZM204.23,168c0,7.58-5.67,13.21-12.86,13.11-7-.09-12.42-5.69-12.5-13.1-.07-6.35,0-12.71,0-19.06,0-6.1,0-12.2,0-18.3.09-7.43,5.46-13,12.49-13.11,7.2-.09,12.82,5.52,12.87,13.1Q204.35,149.26,204.23,168Zm95.49-10.68c-2.36-.61-2.51-1.76-2.49-3.67.08-6.48,0-13,0-19.44h-.15c0-6.73.34-13.48-.1-20.18s-3.88-12.09-10.52-14.55-12.2-.3-17,4.4a32.62,32.62,0,0,0-4.64,6.3c-10.21,16.51-19.16,33.73-29.06,50.4-5.49,9.27.27,19.4,11.16,18.67,8.31-.57,16.69,0,25-.16,2.09,0,2.89.52,2.74,2.7-.19,2.73-.07,5.48-.08,8.22,0,8.3,4.19,13.46,11.07,13.55s11.33-5.07,11.37-13.27c0-2.87.08-5.73,0-8.6,0-1.66.24-2.49,2.25-3a10.7,10.7,0,0,0,8.38-10.56C307.78,162.94,304.85,158.6,299.72,157.27Zm-25-1.64c0,1.07-.89,1-1.63,1h-9.32c3.63-6.4,6.95-12.27,10.27-18.14l.69.06C274.77,144.24,274.79,149.94,274.76,155.63Zm25,1.64c-2.36-.61-2.51-1.76-2.49-3.67.08-6.48,0-13,0-19.44h-.15c0-6.73.34-13.48-.1-20.18s-3.88-12.09-10.52-14.55-12.2-.3-17,4.4a32.62,32.62,0,0,0-4.64,6.3c-10.21,16.51-19.16,33.73-29.06,50.4-5.49,9.27.27,19.4,11.16,18.67,8.31-.57,16.69,0,25-.16,2.09,0,2.89.52,2.74,2.7-.19,2.73-.07,5.48-.08,8.22,0,8.3,4.19,13.46,11.07,13.55s11.33-5.07,11.37-13.27c0-2.87.08-5.73,0-8.6,0-1.66.24-2.49,2.25-3a10.7,10.7,0,0,0,8.38-10.56C307.78,162.94,304.85,158.6,299.72,157.27Zm-25-1.64c0,1.07-.89,1-1.63,1h-9.32c3.63-6.4,6.95-12.27,10.27-18.14l.69.06C274.77,144.24,274.79,149.94,274.76,155.63ZM226,123.92c-2.74-16.5-17.58-28.9-34.55-28.87A35.09,35.09,0,0,0,157,124c-1.37,8.31-.22,16.68-.58,22.71,0,9.29-.21,16.28,0,23.25a35.21,35.21,0,0,0,32.68,33.45c18,1.12,34.54-11.42,36.74-29.15,2-16,.73-32.11.52-48.18A14.14,14.14,0,0,0,226,123.92Zm-21.81,44c0,7.58-5.67,13.21-12.86,13.11-7-.09-12.42-5.69-12.5-13.1-.07-6.35,0-12.71,0-19.06,0-6.1,0-12.2,0-18.3.09-7.43,5.46-13,12.49-13.11,7.2-.09,12.82,5.52,12.87,13.1Q204.35,149.26,204.23,168ZM141.7,157.3c-2.29-.57-2.61-1.55-2.57-3.54.11-6.36,0-12.72,0-19.07h0q0-4.86,0-9.72c0-3.24.05-6.49-.09-9.72C138.76,107.49,134,101,127.47,99s-13.61.9-18.21,7.26c-1.09,1.51-2.11,3.08-3.08,4.67-10.07,16.44-19.39,33.31-28.71,50.17-5.17,9.35-.23,17.86,10.4,17.95,8.6.07,17.2.08,25.8,0,2.22,0,3.15.47,3,2.89-.23,3.22-.16,6.47-.12,9.71.09,6.83,4.56,11.69,10.84,11.87s11.26-4.69,11.57-11.61c.15-3.24.19-6.49.07-9.72-.07-2.14.39-3.12,2.8-3.72a11,11,0,0,0-.1-21.16Zm-26.76-.66h-9.29c3.74-6.62,7.08-12.53,10.43-18.44l.62,0q0,8.58,0,17.16C116.71,156.69,115.83,156.64,114.94,156.64ZM383.1,242.33a11.26,11.26,0,0,0-11.28-11.1c-3.1-.08-6.19,0-9.62,0h-.28L362,231a44.17,44.17,0,0,0,3.21-16.55q-.08-87.36,0-174.72c0-23.43-16.3-39.7-39.72-39.7Q191.52,0,57.59,0a41.58,41.58,0,0,0-6.7.39c-20.15,3.34-32.95,18.44-33,39,0,46.76-.25,93.53.11,140.29.13,17.15-2.42,34.5,2.74,51.72-8.26-.5-16.67-1.53-20.77,8.05v14.22c.73.29.63,1,.74,1.55,5.17,28.17,27.84,47.07,56.61,47.08q134.12,0,268.24,0a58.08,58.08,0,0,0,12.63-1.18C366.11,295,384.34,271.1,383.1,242.33Zm-358.67,15c-.41-1.14-.7-2.33-1.08-3.63H359.49c-2.25,13.81-15.94,25.4-30.68,26.05-1.12.05-2.24.05-3.36.05H57.64C41.89,279.84,29.35,271.34,24.43,257.38ZM58.84,22.3q117.43.42,234.86.06c3.43,0,4.38.87,4.18,4.23-.3,5.09-.22,10.22,0,15.33.1,2.49-.68,3-3.08,3-21.57-.09-43.14-.05-64.7-.05h-61c-41.64,0-83.27-.06-124.91.09-3.44,0-3.76-1-4-4.09C39.4,29.16,47.85,22.26,58.84,22.3ZM342.75,43.69c-.08,1.67-1.29,1.17-2.17,1.19-3.11,0-6.22,0-9.33,0s-6-.1-8.95,0c-1.66.07-2.11-.48-2.08-2.1.08-6.09,0-12.19,0-18.28,0-.9-.43-2.09,1.25-2.11,5.35-.07,10.69-.33,15.29,3.32C342.74,30.48,343.08,36.94,342.75,43.69Zm.08,27.36q-.18,71.28-.09,142.54c0,11.42-6.14,17.62-17.45,17.62H57.8c-11.17,0-17.44-6.19-17.44-17.26q0-71.64-.08-143.28c0-2.91.82-3.39,3.51-3.39q74.07.14,148.14.06,73.51,0,147-.07C342,67.26,342.84,67.87,342.83,71.05Zm-43.11,86.22c-2.36-.61-2.51-1.76-2.49-3.67.08-6.48,0-13,0-19.44h-.15c0-6.73.34-13.48-.1-20.18s-3.88-12.09-10.52-14.55-12.2-.3-17,4.4a32.62,32.62,0,0,0-4.64,6.3c-10.21,16.51-19.16,33.73-29.06,50.4-5.49,9.27.27,19.4,11.16,18.67,8.31-.57,16.69,0,25-.16,2.09,0,2.89.52,2.74,2.7-.19,2.73-.07,5.48-.08,8.22,0,8.3,4.19,13.46,11.07,13.55s11.33-5.07,11.37-13.27c0-2.87.08-5.73,0-8.6,0-1.66.24-2.49,2.25-3a10.7,10.7,0,0,0,8.38-10.56C307.78,162.94,304.85,158.6,299.72,157.27Zm-25-1.64c0,1.07-.89,1-1.63,1h-9.32c3.63-6.4,6.95-12.27,10.27-18.14l.69.06C274.77,144.24,274.79,149.94,274.76,155.63ZM226,123.92c-2.74-16.5-17.58-28.9-34.55-28.87A35.09,35.09,0,0,0,157,124c-1.37,8.31-.22,16.68-.58,22.71,0,9.29-.21,16.28,0,23.25a35.21,35.21,0,0,0,32.68,33.45c18,1.12,34.54-11.42,36.74-29.15,2-16,.73-32.11.52-48.18A14.14,14.14,0,0,0,226,123.92Zm-21.81,44c0,7.58-5.67,13.21-12.86,13.11-7-.09-12.42-5.69-12.5-13.1-.07-6.35,0-12.71,0-19.06,0-6.1,0-12.2,0-18.3.09-7.43,5.46-13,12.49-13.11,7.2-.09,12.82,5.52,12.87,13.1Q204.35,149.26,204.23,168ZM141.7,157.3c-2.29-.57-2.61-1.55-2.57-3.54.11-6.36,0-12.72,0-19.07h0q0-4.86,0-9.72c0-3.24.05-6.49-.09-9.72C138.76,107.49,134,101,127.47,99s-13.61.9-18.21,7.26c-1.09,1.51-2.11,3.08-3.08,4.67-10.07,16.44-19.39,33.31-28.71,50.17-5.17,9.35-.23,17.86,10.4,17.95,8.6.07,17.2.08,25.8,0,2.22,0,3.15.47,3,2.89-.23,3.22-.16,6.47-.12,9.71.09,6.83,4.56,11.69,10.84,11.87s11.26-4.69,11.57-11.61c.15-3.24.19-6.49.07-9.72-.07-2.14.39-3.12,2.8-3.72a11,11,0,0,0-.1-21.16Zm-26.76-.66h-9.29c3.74-6.62,7.08-12.53,10.43-18.44l.62,0q0,8.58,0,17.16C116.71,156.69,115.83,156.64,114.94,156.64Zm26.76.66c-2.29-.57-2.61-1.55-2.57-3.54.11-6.36,0-12.72,0-19.07h0q0-4.86,0-9.72c0-3.24.05-6.49-.09-9.72C138.76,107.49,134,101,127.47,99s-13.61.9-18.21,7.26c-1.09,1.51-2.11,3.08-3.08,4.67-10.07,16.44-19.39,33.31-28.71,50.17-5.17,9.35-.23,17.86,10.4,17.95,8.6.07,17.2.08,25.8,0,2.22,0,3.15.47,3,2.89-.23,3.22-.16,6.47-.12,9.71.09,6.83,4.56,11.69,10.84,11.87s11.26-4.69,11.57-11.61c.15-3.24.19-6.49.07-9.72-.07-2.14.39-3.12,2.8-3.72a11,11,0,0,0-.1-21.16Zm-26.76-.66h-9.29c3.74-6.62,7.08-12.53,10.43-18.44l.62,0q0,8.58,0,17.16C116.71,156.69,115.83,156.64,114.94,156.64Zm111.5-30.52a14.14,14.14,0,0,0-.4-2.2c-2.74-16.5-17.58-28.9-34.55-28.87A35.09,35.09,0,0,0,157,124c-1.37,8.31-.22,16.68-.58,22.71,0,9.29-.21,16.28,0,23.25a35.21,35.21,0,0,0,32.68,33.45c18,1.12,34.54-11.42,36.74-29.15C227.9,158.34,226.65,142.19,226.44,126.12ZM204.23,168c0,7.58-5.67,13.21-12.86,13.11-7-.09-12.42-5.69-12.5-13.1-.07-6.35,0-12.71,0-19.06,0-6.1,0-12.2,0-18.3.09-7.43,5.46-13,12.49-13.11,7.2-.09,12.82,5.52,12.87,13.1Q204.35,149.26,204.23,168Zm95.49-10.68c-2.36-.61-2.51-1.76-2.49-3.67.08-6.48,0-13,0-19.44h-.15c0-6.73.34-13.48-.1-20.18s-3.88-12.09-10.52-14.55-12.2-.3-17,4.4a32.62,32.62,0,0,0-4.64,6.3c-10.21,16.51-19.16,33.73-29.06,50.4-5.49,9.27.27,19.4,11.16,18.67,8.31-.57,16.69,0,25-.16,2.09,0,2.89.52,2.74,2.7-.19,2.73-.07,5.48-.08,8.22,0,8.3,4.19,13.46,11.07,13.55s11.33-5.07,11.37-13.27c0-2.87.08-5.73,0-8.6,0-1.66.24-2.49,2.25-3a10.7,10.7,0,0,0,8.38-10.56C307.78,162.94,304.85,158.6,299.72,157.27Zm-25-1.64c0,1.07-.89,1-1.63,1h-9.32c3.63-6.4,6.95-12.27,10.27-18.14l.69.06C274.77,144.24,274.79,149.94,274.76,155.63Zm25,1.64c-2.36-.61-2.51-1.76-2.49-3.67.08-6.48,0-13,0-19.44h-.15c0-6.73.34-13.48-.1-20.18s-3.88-12.09-10.52-14.55-12.2-.3-17,4.4a32.62,32.62,0,0,0-4.64,6.3c-10.21,16.51-19.16,33.73-29.06,50.4-5.49,9.27.27,19.4,11.16,18.67,8.31-.57,16.69,0,25-.16,2.09,0,2.89.52,2.74,2.7-.19,2.73-.07,5.48-.08,8.22,0,8.3,4.19,13.46,11.07,13.55s11.33-5.07,11.37-13.27c0-2.87.08-5.73,0-8.6,0-1.66.24-2.49,2.25-3a10.7,10.7,0,0,0,8.38-10.56C307.78,162.94,304.85,158.6,299.72,157.27Zm-25-1.64c0,1.07-.89,1-1.63,1h-9.32c3.63-6.4,6.95-12.27,10.27-18.14l.69.06C274.77,144.24,274.79,149.94,274.76,155.63Zm-48.32-29.51a14.14,14.14,0,0,0-.4-2.2c-2.74-16.5-17.58-28.9-34.55-28.87A35.09,35.09,0,0,0,157,124c-1.37,8.31-.22,16.68-.58,22.71,0,9.29-.21,16.28,0,23.25a35.21,35.21,0,0,0,32.68,33.45c18,1.12,34.54-11.42,36.74-29.15C227.9,158.34,226.65,142.19,226.44,126.12ZM204.23,168c0,7.58-5.67,13.21-12.86,13.11-7-.09-12.42-5.69-12.5-13.1-.07-6.35,0-12.71,0-19.06,0-6.1,0-12.2,0-18.3.09-7.43,5.46-13,12.49-13.11,7.2-.09,12.82,5.52,12.87,13.1Q204.35,149.26,204.23,168ZM141.7,157.3c-2.29-.57-2.61-1.55-2.57-3.54.11-6.36,0-12.72,0-19.07h0q0-4.86,0-9.72c0-3.24.05-6.49-.09-9.72C138.76,107.49,134,101,127.47,99s-13.61.9-18.21,7.26c-1.09,1.51-2.11,3.08-3.08,4.67-10.07,16.44-19.39,33.31-28.71,50.17-5.17,9.35-.23,17.86,10.4,17.95,8.6.07,17.2.08,25.8,0,2.22,0,3.15.47,3,2.89-.23,3.22-.16,6.47-.12,9.71.09,6.83,4.56,11.69,10.84,11.87s11.26-4.69,11.57-11.61c.15-3.24.19-6.49.07-9.72-.07-2.14.39-3.12,2.8-3.72a11,11,0,0,0-.1-21.16Zm-26.76-.66h-9.29c3.74-6.62,7.08-12.53,10.43-18.44l.62,0q0,8.58,0,17.16C116.71,156.69,115.83,156.64,114.94,156.64Zm26.76.66c-2.29-.57-2.61-1.55-2.57-3.54.11-6.36,0-12.72,0-19.07h0q0-4.86,0-9.72c0-3.24.05-6.49-.09-9.72C138.76,107.49,134,101,127.47,99s-13.61.9-18.21,7.26c-1.09,1.51-2.11,3.08-3.08,4.67-10.07,16.44-19.39,33.31-28.71,50.17-5.17,9.35-.23,17.86,10.4,17.95,8.6.07,17.2.08,25.8,0,2.22,0,3.15.47,3,2.89-.23,3.22-.16,6.47-.12,9.71.09,6.83,4.56,11.69,10.84,11.87s11.26-4.69,11.57-11.61c.15-3.24.19-6.49.07-9.72-.07-2.14.39-3.12,2.8-3.72a11,11,0,0,0-.1-21.16Zm-26.76-.66h-9.29c3.74-6.62,7.08-12.53,10.43-18.44l.62,0q0,8.58,0,17.16C116.71,156.69,115.83,156.64,114.94,156.64Zm111.5-30.52a14.14,14.14,0,0,0-.4-2.2c-2.74-16.5-17.58-28.9-34.55-28.87A35.09,35.09,0,0,0,157,124c-1.37,8.31-.22,16.68-.58,22.71,0,9.29-.21,16.28,0,23.25a35.21,35.21,0,0,0,32.68,33.45c18,1.12,34.54-11.42,36.74-29.15C227.9,158.34,226.65,142.19,226.44,126.12ZM204.23,168c0,7.58-5.67,13.21-12.86,13.11-7-.09-12.42-5.69-12.5-13.1-.07-6.35,0-12.71,0-19.06,0-6.1,0-12.2,0-18.3.09-7.43,5.46-13,12.49-13.11,7.2-.09,12.82,5.52,12.87,13.1Q204.35,149.26,204.23,168Zm95.49-10.68c-2.36-.61-2.51-1.76-2.49-3.67.08-6.48,0-13,0-19.44h-.15c0-6.73.34-13.48-.1-20.18s-3.88-12.09-10.52-14.55-12.2-.3-17,4.4a32.62,32.62,0,0,0-4.64,6.3c-10.21,16.51-19.16,33.73-29.06,50.4-5.49,9.27.27,19.4,11.16,18.67,8.31-.57,16.69,0,25-.16,2.09,0,2.89.52,2.74,2.7-.19,2.73-.07,5.48-.08,8.22,0,8.3,4.19,13.46,11.07,13.55s11.33-5.07,11.37-13.27c0-2.87.08-5.73,0-8.6,0-1.66.24-2.49,2.25-3a10.7,10.7,0,0,0,8.38-10.56C307.78,162.94,304.85,158.6,299.72,157.27Zm-25-1.64c0,1.07-.89,1-1.63,1h-9.32c3.63-6.4,6.95-12.27,10.27-18.14l.69.06C274.77,144.24,274.79,149.94,274.76,155.63Zm25,1.64c-2.36-.61-2.51-1.76-2.49-3.67.08-6.48,0-13,0-19.44h-.15c0-6.73.34-13.48-.1-20.18s-3.88-12.09-10.52-14.55-12.2-.3-17,4.4a32.62,32.62,0,0,0-4.64,6.3c-10.21,16.51-19.16,33.73-29.06,50.4-5.49,9.27.27,19.4,11.16,18.67,8.31-.57,16.69,0,25-.16,2.09,0,2.89.52,2.74,2.7-.19,2.73-.07,5.48-.08,8.22,0,8.3,4.19,13.46,11.07,13.55s11.33-5.07,11.37-13.27c0-2.87.08-5.73,0-8.6,0-1.66.24-2.49,2.25-3a10.7,10.7,0,0,0,8.38-10.56C307.78,162.94,304.85,158.6,299.72,157.27Zm-25-1.64c0,1.07-.89,1-1.63,1h-9.32c3.63-6.4,6.95-12.27,10.27-18.14l.69.06C274.77,144.24,274.79,149.94,274.76,155.63Zm-48.32-29.51a14.14,14.14,0,0,0-.4-2.2c-2.74-16.5-17.58-28.9-34.55-28.87A35.09,35.09,0,0,0,157,124c-1.37,8.31-.22,16.68-.58,22.71,0,9.29-.21,16.28,0,23.25a35.21,35.21,0,0,0,32.68,33.45c18,1.12,34.54-11.42,36.74-29.15C227.9,158.34,226.65,142.19,226.44,126.12ZM204.23,168c0,7.58-5.67,13.21-12.86,13.11-7-.09-12.42-5.69-12.5-13.1-.07-6.35,0-12.71,0-19.06,0-6.1,0-12.2,0-18.3.09-7.43,5.46-13,12.49-13.11,7.2-.09,12.82,5.52,12.87,13.1Q204.35,149.26,204.23,168ZM141.7,157.3c-2.29-.57-2.61-1.55-2.57-3.54.11-6.36,0-12.72,0-19.07h0q0-4.86,0-9.72c0-3.24.05-6.49-.09-9.72C138.76,107.49,134,101,127.47,99s-13.61.9-18.21,7.26c-1.09,1.51-2.11,3.08-3.08,4.67-10.07,16.44-19.39,33.31-28.71,50.17-5.17,9.35-.23,17.86,10.4,17.95,8.6.07,17.2.08,25.8,0,2.22,0,3.15.47,3,2.89-.23,3.22-.16,6.47-.12,9.71.09,6.83,4.56,11.69,10.84,11.87s11.26-4.69,11.57-11.61c.15-3.24.19-6.49.07-9.72-.07-2.14.39-3.12,2.8-3.72a11,11,0,0,0-.1-21.16Zm-26.76-.66h-9.29c3.74-6.62,7.08-12.53,10.43-18.44l.62,0q0,8.58,0,17.16C116.71,156.69,115.83,156.64,114.94,156.64Z"/><path class="cls-1" d="M141.7,157.3c-2.29-.57-2.61-1.55-2.57-3.54.11-6.36,0-12.72,0-19.07h0q0-4.86,0-9.72c0-3.24.05-6.49-.09-9.72C138.76,107.49,134,101,127.47,99s-13.61.9-18.21,7.26c-1.09,1.51-2.11,3.08-3.08,4.67-10.07,16.44-19.39,33.31-28.71,50.17-5.17,9.35-.23,17.86,10.4,17.95,8.6.07,17.2.08,25.8,0,2.22,0,3.15.47,3,2.89-.23,3.22-.16,6.47-.12,9.71.09,6.83,4.56,11.69,10.84,11.87s11.26-4.69,11.57-11.61c.15-3.24.19-6.49.07-9.72-.07-2.14.39-3.12,2.8-3.72a11,11,0,0,0-.1-21.16Zm-26.76-.66h-9.29c3.74-6.62,7.08-12.53,10.43-18.44l.62,0q0,8.58,0,17.16C116.71,156.69,115.83,156.64,114.94,156.64Z"/><path class="cls-1" d="M226.44,126.12a14.14,14.14,0,0,0-.4-2.2c-2.74-16.5-17.58-28.9-34.55-28.87A35.09,35.09,0,0,0,157,124c-1.37,8.31-.22,16.68-.58,22.71,0,9.29-.21,16.28,0,23.25a35.21,35.21,0,0,0,32.68,33.45c18,1.12,34.54-11.42,36.74-29.15C227.9,158.34,226.65,142.19,226.44,126.12ZM204.23,168c0,7.58-5.67,13.21-12.86,13.11-7-.09-12.42-5.69-12.5-13.1-.07-6.35,0-12.71,0-19.06,0-6.1,0-12.2,0-18.3.09-7.43,5.46-13,12.49-13.11,7.2-.09,12.82,5.52,12.87,13.1Q204.35,149.26,204.23,168Z"/><path class="cls-1" d="M299.72,157.27c-2.36-.61-2.51-1.76-2.49-3.67.08-6.48,0-13,0-19.44h-.15c0-6.73.34-13.48-.1-20.18s-3.88-12.09-10.52-14.55-12.2-.3-17,4.4a32.62,32.62,0,0,0-4.64,6.3c-10.21,16.51-19.16,33.73-29.06,50.4-5.49,9.27.27,19.4,11.16,18.67,8.31-.57,16.69,0,25-.16,2.09,0,2.89.52,2.74,2.7-.19,2.73-.07,5.48-.08,8.22,0,8.3,4.19,13.46,11.07,13.55s11.33-5.07,11.37-13.27c0-2.87.08-5.73,0-8.6,0-1.66.24-2.49,2.25-3a10.7,10.7,0,0,0,8.38-10.56C307.78,162.94,304.85,158.6,299.72,157.27Zm-25-1.64c0,1.07-.89,1-1.63,1h-9.32c3.63-6.4,6.95-12.27,10.27-18.14l.69.06C274.77,144.24,274.79,149.94,274.76,155.63Z"/><path d="M226.44,126.12a14.14,14.14,0,0,0-.4-2.2c-2.74-16.5-17.58-28.9-34.55-28.87A35.09,35.09,0,0,0,157,124c-1.37,8.31-.22,16.68-.58,22.71,0,9.29-.21,16.28,0,23.25a35.21,35.21,0,0,0,32.68,33.45c18,1.12,34.54-11.42,36.74-29.15C227.9,158.34,226.65,142.19,226.44,126.12ZM204.23,168c0,7.58-5.67,13.21-12.86,13.11-7-.09-12.42-5.69-12.5-13.1-.07-6.35,0-12.71,0-19.06,0-6.1,0-12.2,0-18.3.09-7.43,5.46-13,12.49-13.11,7.2-.09,12.82,5.52,12.87,13.1Q204.35,149.26,204.23,168Z"/><path d="M141.7,157.3c-2.29-.57-2.61-1.55-2.57-3.54.11-6.36,0-12.72,0-19.07h0q0-4.86,0-9.72c0-3.24.05-6.49-.09-9.72C138.76,107.49,134,101,127.47,99s-13.61.9-18.21,7.26c-1.09,1.51-2.11,3.08-3.08,4.67-10.07,16.44-19.39,33.31-28.71,50.17-5.17,9.35-.23,17.86,10.4,17.95,8.6.07,17.2.08,25.8,0,2.22,0,3.15.47,3,2.89-.23,3.22-.16,6.47-.12,9.71.09,6.83,4.56,11.69,10.84,11.87s11.26-4.69,11.57-11.61c.15-3.24.19-6.49.07-9.72-.07-2.14.39-3.12,2.8-3.72a11,11,0,0,0-.1-21.16Zm-26.76-.66h-9.29c3.74-6.62,7.08-12.53,10.43-18.44l.62,0q0,8.58,0,17.16C116.71,156.69,115.83,156.64,114.94,156.64Z"/><path d="M299.72,157.27c-2.36-.61-2.51-1.76-2.49-3.67.08-6.48,0-13,0-19.44h-.15c0-6.73.34-13.48-.1-20.18s-3.88-12.09-10.52-14.55-12.2-.3-17,4.4a32.62,32.62,0,0,0-4.64,6.3c-10.21,16.51-19.16,33.73-29.06,50.4-5.49,9.27.27,19.4,11.16,18.67,8.31-.57,16.69,0,25-.16,2.09,0,2.89.52,2.74,2.7-.19,2.73-.07,5.48-.08,8.22,0,8.3,4.19,13.46,11.07,13.55s11.33-5.07,11.37-13.27c0-2.87.08-5.73,0-8.6,0-1.66.24-2.49,2.25-3a10.7,10.7,0,0,0,8.38-10.56C307.78,162.94,304.85,158.6,299.72,157.27Zm-25-1.64c0,1.07-.89,1-1.63,1h-9.32c3.63-6.4,6.95-12.27,10.27-18.14l.69.06C274.77,144.24,274.79,149.94,274.76,155.63Z"/></g></g></svg>