<svg xmlns="http://www.w3.org/2000/svg" width="22.627" height="24.135" viewBox="0 0 22.627 24.135"><path d="M10.113,10.979H13.13V14H10.113Zm4.525,0h3.017V14H14.638Zm4.525,0H22.18V14H19.164ZM5.588,20.029H8.6v3.017H5.588Zm4.525,0H13.13v3.017H10.113Zm4.525,0h3.017v3.017H14.638ZM10.113,15.5H13.13v3.017H10.113Zm4.525,0h3.017v3.017H14.638Zm4.525,0H22.18v3.017H19.164Zm-13.576,0H8.6v3.017H5.588ZM22.18,1.928V3.436H19.164V1.928H8.6V3.436H5.588V1.928H2.571V26.063H25.2V1.928H22.18Zm1.508,22.627H4.079V7.962h19.61Z" transform="translate(-2.571 -1.928)"/></svg>