<svg xmlns="http://www.w3.org/2000/svg" width="23.051" height="23.977" viewBox="0 0 23.051 23.977"><path d="M17.525,19.768a2.643,2.643,0,0,0,2.881-2.284A2.643,2.643,0,0,0,17.525,15.2a2.643,2.643,0,0,0-2.881,2.284A2.643,2.643,0,0,0,17.525,19.768ZM26.169,9.492H24.729V7.209c0-3.151-3.227-5.709-7.2-5.709s-7.2,2.558-7.2,5.709V9.492H8.881A2.643,2.643,0,0,0,6,11.776V23.193a2.643,2.643,0,0,0,2.881,2.284H26.169a2.643,2.643,0,0,0,2.881-2.284V11.776A2.643,2.643,0,0,0,26.169,9.492ZM13.059,7.209c0-1.952,2-3.539,4.466-3.539s4.466,1.587,4.466,3.539V9.492H13.059Zm13.11,15.985H8.881V11.776H26.169Z" transform="translate(-6 -1.5)" fill="#292e32"/></svg>