<svg xmlns="http://www.w3.org/2000/svg" width="25.637" height="19.535" viewBox="0 0 25.637 19.535"><g transform="translate(2 1.875)"><g transform="translate(0)"><path d="M24.635,72.041a1,1,0,0,0,1-1V64.5a4.006,4.006,0,0,0-4.006-4H4.006A4.006,4.006,0,0,0,0,64.5V76.038a4.006,4.006,0,0,0,4.006,4H21.631a4.006,4.006,0,0,0,4.006-4,1,1,0,0,0-2,0,2,2,0,0,1-2,2H4.006a2,2,0,0,1-2-2V64.709l8.7,5.4a3.988,3.988,0,0,0,4.231,0l8.7-5.4v6.333A1,1,0,0,0,24.635,72.041ZM13.876,68.409a1.994,1.994,0,0,1-2.115,0L2.839,62.874A2,2,0,0,1,4.006,62.5H21.631a2,2,0,0,1,1.167.375Z" transform="translate(-2 -62.375)" fill="#292e32"/></g></g></svg>