<svg xmlns="http://www.w3.org/2000/svg" viewBox="0 0 312.08 311.34"><defs><style>.cls-1{fill:#fefefe;}</style></defs><title>error bases de datos1</title><g id="Layer_2" data-name="Layer 2"><g id="Layer_1-2" data-name="Layer 1"><path class="cls-1" d="M201.62,222.77c-6.45,6.78-13.17,13.3-19.82,19.89-3.92,3.87-6.65,3.85-10.55,0q-3.21-3.13-6.36-6.34c-3.89-3.93-3.93-6.65-.07-10.52,6.69-6.73,13.35-13.48,20.17-20.07,1.78-1.71,1.75-2.63,0-4.33-6.73-6.5-13.3-13.17-19.91-19.8-4.2-4.21-4.17-6.77.07-11.07,2.2-2.21,4.37-4.46,6.64-6.59,3.33-3.13,6.21-3.16,9.48.05,6.69,6.55,13.42,13.07,19.83,19.88,2.46,2.62,3.74,2.19,6-.14,6.29-6.58,12.82-12.94,19.3-19.35,3.73-3.7,6.51-3.72,10.3-.06,2.68,2.6,5.29,5.29,7.87,8a5.12,5.12,0,0,1,1.45,3.74c0,2.34-1.33,3.9-2.87,5.43-6.73,6.68-13.37,13.46-20.19,20.05-1.68,1.63-1.65,2.46,0,4.07,6.64,6.42,13.12,13,19.65,19.53,4.72,4.71,4.69,7.07-.11,11.87-2,2-4,4.1-6.1,6.08-3.46,3.28-6.35,3.29-9.76-.07-6.75-6.66-13.5-13.33-20.1-20.14C204.67,221,203.68,220.6,201.62,222.77Z"/><path class="cls-1" d="M306.11,169.19c-14.25-40.5-43.53-64.46-86-71.94-3.42-.6-4.25-1.68-4.2-5.06.23-14.46.07-28.93.11-43.39a32.46,32.46,0,0,0-7.43-21c-5.86-7.29-13.55-12.07-22-15.67C170.9,5.43,154.34,2.66,137.49,1.31,109.74-.91,82.08-.62,54.65,4.61,40.48,7.3,26.8,11.52,15.11,20.42,5.18,28-.08,37.73,0,50.54c.23,35,.08,70.07.08,105.1,0,35.41.06,70.82,0,106.23a34,34,0,0,0,11,25.63c7.54,7.23,16.73,11.59,26.51,14.84C54.65,308,72.35,310,90.22,310.87c25,1.2,49.93.29,74.54-4.89a12.05,12.05,0,0,1,6.55.08A105.75,105.75,0,0,0,220.83,310C286.57,299.86,328.19,231.92,306.11,169.19ZM27.34,41.39C33.78,35,42.12,32.31,50.57,30.07c18.85-5,38.16-5.9,57.93-6.11,19.73.28,39.77,1.18,59.3,6.73,6.49,1.84,12.78,4.2,18.25,8.29,8,6,8,12.07-.11,18-7.91,5.8-17.17,8.44-26.6,10.34-26,5.25-52.31,5.51-78.67,3.41-13.94-1.11-27.74-3.16-40.82-8.48-4.65-1.88-9.07-4.15-12.6-7.82C23,50,22.93,45.75,27.34,41.39Zm-3.27,40C51.29,94,79.73,95.8,108.4,95.77c28.51,0,56.82-1.87,83.62-14.35,0,4.7,0,9,0,13.35,0,3.24-2.71,2.09-4.1,2.3a107.74,107.74,0,0,0-38.48,13.67A104.93,104.93,0,0,0,116.29,141a5.55,5.55,0,0,1-5.14,2.73c-20.39,0-40.69-.94-60.55-6.08-7.26-1.88-14.28-4.39-20.44-8.85-4.1-3-6.32-6.59-6.18-12C24.28,105.18,24.07,93.49,24.07,81.41ZM23.9,186.27c.7-10.79.17-21.65.17-33.15,12,5.9,24.39,9.06,37.06,11.13a283.88,283.88,0,0,0,37.62,3.22c2.7.07,3.66.25,2.62,3.37a99.25,99.25,0,0,0-4.82,41.93c.15,1.37.58,2.74-1.78,2.61-18.32-1-36.56-2.52-53.95-9a61.81,61.81,0,0,1-6.73-3.21C27.26,199.61,23.36,194.74,23.9,186.27ZM98,287.25c-17.74-.63-35.4-2-52.45-7.41a51,51,0,0,1-16-7.85A12.86,12.86,0,0,1,24,260.81c.25-11.79.08-23.59.08-35.87a119,119,0,0,0,27.5,9.35c15.56,3.39,31.35,4.54,47.21,5,2.56.08,3.84.69,4.82,3.28A105.66,105.66,0,0,0,132,283.71l2.7,2.47A275,275,0,0,1,98,287.25Zm106,.13a84,84,0,0,1-83.94-84c.08-46.07,37.78-83.6,84-83.59a84,84,0,0,1,84,84C287.89,249.86,250.18,287.39,204,287.38Z"/><path d="M242.58,225.15c4.72,4.71,4.69,7.07-.11,11.87-2,2-4,4.1-6.1,6.08-3.46,3.28-6.35,3.29-9.76-.07-6.75-6.66-13.5-13.33-20.1-20.14-1.84-1.89-2.83-2.29-4.89-.12-6.45,6.78-13.17,13.3-19.82,19.89-3.92,3.87-6.65,3.85-10.55,0q-3.21-3.13-6.36-6.34c-3.89-3.93-3.93-6.65-.07-10.52,6.69-6.73,13.35-13.48,20.17-20.07,1.78-1.71,1.75-2.63,0-4.33-6.73-6.5-13.3-13.17-19.91-19.8-4.2-4.21-4.17-6.77.07-11.07,2.2-2.21,4.37-4.46,6.64-6.59,3.33-3.13,6.21-3.16,9.48.05,6.69,6.55,13.42,13.07,19.83,19.88,2.46,2.62,3.74,2.19,6-.14,6.29-6.58,12.82-12.94,19.3-19.35,3.73-3.7,6.51-3.72,10.3-.06,2.68,2.6,5.29,5.29,7.87,8a5.12,5.12,0,0,1,1.45,3.74c0,2.34-1.33,3.9-2.87,5.43-6.73,6.68-13.37,13.46-20.19,20.05-1.68,1.63-1.65,2.46,0,4.07C229.57,212,236.05,218.62,242.58,225.15Z"/><path d="M306.11,169.19c-14.25-40.5-43.53-64.46-86-71.94-3.42-.6-4.25-1.68-4.2-5.06.23-14.46.07-28.93.11-43.39a32.46,32.46,0,0,0-7.43-21c-5.86-7.29-13.55-12.07-22-15.67C170.9,5.43,154.34,2.66,137.49,1.31,109.74-.91,82.08-.62,54.65,4.61,40.48,7.3,26.8,11.52,15.11,20.42,5.18,28-.08,37.73,0,50.54c.23,35,.08,70.07.08,105.1,0,35.41.06,70.82,0,106.23a34,34,0,0,0,11,25.63c7.54,7.23,16.73,11.59,26.51,14.84C54.65,308,72.35,310,90.22,310.87c25,1.2,49.93.29,74.54-4.89a12.05,12.05,0,0,1,6.55.08A105.75,105.75,0,0,0,220.83,310C286.57,299.86,328.19,231.92,306.11,169.19ZM27.34,41.39C33.78,35,42.12,32.31,50.57,30.07c18.85-5,38.16-5.9,57.93-6.11,19.73.28,39.77,1.18,59.3,6.73,6.49,1.84,12.78,4.2,18.25,8.29,8,6,8,12.07-.11,18-7.91,5.8-17.17,8.44-26.6,10.34-26,5.25-52.31,5.51-78.67,3.41-13.94-1.11-27.74-3.16-40.82-8.48-4.65-1.88-9.07-4.15-12.6-7.82C23,50,22.93,45.75,27.34,41.39Zm-3.27,40C51.29,94,79.73,95.8,108.4,95.77c28.51,0,56.82-1.87,83.62-14.35,0,4.7,0,9,0,13.35,0,3.24-2.71,2.09-4.1,2.3a107.74,107.74,0,0,0-38.48,13.67A104.93,104.93,0,0,0,116.29,141a5.55,5.55,0,0,1-5.14,2.73c-20.39,0-40.69-.94-60.55-6.08-7.26-1.88-14.28-4.39-20.44-8.85-4.1-3-6.32-6.59-6.18-12C24.28,105.18,24.07,93.49,24.07,81.41ZM23.9,186.27c.7-10.79.17-21.65.17-33.15,12,5.9,24.39,9.06,37.06,11.13a283.88,283.88,0,0,0,37.62,3.22c2.7.07,3.66.25,2.62,3.37a99.25,99.25,0,0,0-4.82,41.93c.15,1.37.58,2.74-1.78,2.61-18.32-1-36.56-2.52-53.95-9a61.81,61.81,0,0,1-6.73-3.21C27.26,199.61,23.36,194.74,23.9,186.27ZM98,287.25c-17.74-.63-35.4-2-52.45-7.41a51,51,0,0,1-16-7.85A12.86,12.86,0,0,1,24,260.81c.25-11.79.08-23.59.08-35.87a119,119,0,0,0,27.5,9.35c15.56,3.39,31.35,4.54,47.21,5,2.56.08,3.84.69,4.82,3.28A105.66,105.66,0,0,0,132,283.71l2.7,2.47A275,275,0,0,1,98,287.25Zm106,.13a84,84,0,0,1-83.94-84c.08-46.07,37.78-83.6,84-83.59a84,84,0,0,1,84,84C287.89,249.86,250.18,287.39,204,287.38Z"/><path class="cls-1" d="M242.47,237c-2,2-4,4.1-6.1,6.08-3.46,3.28-6.35,3.29-9.76-.07-6.75-6.66-13.5-13.33-20.1-20.14-1.84-1.89-2.83-2.29-4.89-.12-6.45,6.78-13.17,13.3-19.82,19.89-3.92,3.87-6.65,3.85-10.55,0q-3.21-3.13-6.36-6.34c-3.89-3.93-3.93-6.65-.07-10.52,6.69-6.73,13.35-13.48,20.17-20.07,1.78-1.71,1.75-2.63,0-4.33-6.73-6.5-13.3-13.17-19.91-19.8-4.2-4.21-4.17-6.77.07-11.07,2.2-2.21,4.37-4.46,6.64-6.59,3.33-3.13,6.21-3.16,9.48.05,6.69,6.55,13.42,13.07,19.83,19.88,2.46,2.62,3.74,2.19,6-.14,6.29-6.58,12.82-12.94,19.3-19.35,3.73-3.7,6.51-3.72,10.3-.06,2.68,2.6,5.29,5.29,7.87,8a5.12,5.12,0,0,1,1.45,3.74c0,2.34-1.33,3.9-2.87,5.43-6.73,6.68-13.37,13.46-20.19,20.05-1.68,1.63-1.65,2.46,0,4.07,6.64,6.42,13.12,13,19.65,19.53C247.3,229.86,247.27,232.22,242.47,237Z"/><path d="M242.47,237c-2,2-4,4.1-6.1,6.08-3.46,3.28-6.35,3.29-9.76-.07-6.75-6.66-13.5-13.33-20.1-20.14-1.84-1.89-2.83-2.29-4.89-.12-6.45,6.78-13.17,13.3-19.82,19.89-3.92,3.87-6.65,3.85-10.55,0q-3.21-3.13-6.36-6.34c-3.89-3.93-3.93-6.65-.07-10.52,6.69-6.73,13.35-13.48,20.17-20.07,1.78-1.71,1.75-2.63,0-4.33-6.73-6.5-13.3-13.17-19.91-19.8-4.2-4.21-4.17-6.77.07-11.07,2.2-2.21,4.37-4.46,6.64-6.59,3.33-3.13,6.21-3.16,9.48.05,6.69,6.55,13.42,13.07,19.83,19.88,2.46,2.62,3.74,2.19,6-.14,6.29-6.58,12.82-12.94,19.3-19.35,3.73-3.7,6.51-3.72,10.3-.06,2.68,2.6,5.29,5.29,7.87,8a5.12,5.12,0,0,1,1.45,3.74c0,2.34-1.33,3.9-2.87,5.43-6.73,6.68-13.37,13.46-20.19,20.05-1.68,1.63-1.65,2.46,0,4.07,6.64,6.42,13.12,13,19.65,19.53C247.3,229.86,247.27,232.22,242.47,237Z"/></g></g></svg>