<svg xmlns="http://www.w3.org/2000/svg" width="35.815" height="35.815" viewBox="0 0 35.815 35.815"><path d="M22.907,5A17.907,17.907,0,1,0,40.815,22.907,17.907,17.907,0,0,0,22.907,5Z" transform="translate(-5 -5)" fill="#039be5"/><path d="M25.99,28.1h4.634l.728-4.708H25.989V20.822c0-1.956.639-3.69,2.468-3.69H31.4V13.023a24.971,24.971,0,0,0-3.673-.222c-4.31,0-6.837,2.276-6.837,7.462v3.132H16.457V28.1h4.431v12.94a17.944,17.944,0,0,0,2.679.221,18.024,18.024,0,0,0,2.424-.183Z" transform="translate(-5.659 -5.449)" fill="#fff"/></svg>