<svg xmlns="http://www.w3.org/2000/svg" width="24.2" height="17.723" viewBox="0 0 24.2 17.723"><path d="M5.046,17.723C1.733,17.723,0,15.866,0,14.031a3.275,3.275,0,0,1,1.846-2.954A8.264,8.264,0,0,1,5.662,9.969a1.64,1.64,0,0,1-.37-1.231,1.106,1.106,0,0,1,.123-.615H4.923A3.916,3.916,0,0,1,2.031,6.969,3.667,3.667,0,0,1,.985,4.431a4.318,4.318,0,0,1,1.231-3A5.193,5.193,0,0,1,6.031,0H11.2l-.369.369-.861.862-.123.122H8.985a3.7,3.7,0,0,1,1.108,2.708A3.665,3.665,0,0,1,8.123,7.385a1.035,1.035,0,0,0-.492.861.836.836,0,0,0,.492.739,2.618,2.618,0,0,0,.6.361l.015.008.2.149a4.091,4.091,0,0,1,2.139,3.42C11.077,15.137,9.5,17.723,5.046,17.723Zm1.477-6.646a9.065,9.065,0,0,0-2.216.369,2.277,2.277,0,0,0-1.846,2.093c0,1.3,1.156,2.707,3.693,2.707a2.7,2.7,0,0,0,2.954-2.462c0-.852-.581-1.45-2.216-2.707ZM5.046,1.354c-.375,0-1.6.151-1.6,2.093a4.961,4.961,0,0,0,.585,2.339A2.165,2.165,0,0,0,5.908,7.016,1.892,1.892,0,0,0,7.631,5.046C7.631,3.759,6.873,1.354,5.046,1.354Z" fill="#fff"/><path d="M11.2,6.72H6.72V11.2H4.48V6.72H0V4.48H4.48V0H6.72V4.48H11.2V6.72Z" transform="translate(13 2)" fill="#fff"/></svg>