<svg xmlns="http://www.w3.org/2000/svg" width="38.86" height="29.073" viewBox="0 0 38.86 29.073"><path d="M41.988,33.13a4.839,4.839,0,0,1-4.07,3.876,100.858,100.858,0,0,1-14.536,1.066A103.258,103.258,0,0,1,8.845,37.007a4.839,4.839,0,0,1-4.07-3.876A56.72,56.72,0,0,1,4,23.536a56.72,56.72,0,0,1,.775-9.594,4.839,4.839,0,0,1,4.07-3.876A100.859,100.859,0,0,1,23.382,9a102.049,102.049,0,0,1,14.536,1.066,4.839,4.839,0,0,1,4.07,3.876,54.976,54.976,0,0,1,.872,9.594A66.552,66.552,0,0,1,41.988,33.13Z" transform="translate(-4 -9)" fill="#ff3d00"/><path d="M20,30.567V17l11.629,6.784Z" transform="translate(-4.495 -9.247)" fill="#fff"/></svg>