<svg xmlns="http://www.w3.org/2000/svg" width="95.469" height="95.469" viewBox="0 0 95.469 95.469">
  <path id="Icon_awesome-check-circle" data-name="Icon awesome-check-circle" d="M96.031,48.3A47.734,47.734,0,1,1,48.3.563,47.734,47.734,0,0,1,96.031,48.3ZM42.775,73.572,78.191,38.156a3.08,3.08,0,0,0,0-4.355l-4.355-4.355a3.08,3.08,0,0,0-4.355,0L40.6,58.328,27.113,44.844a3.08,3.08,0,0,0-4.355,0L18.4,49.2a3.08,3.08,0,0,0,0,4.355L38.42,73.572a3.08,3.08,0,0,0,4.355,0Z" transform="translate(-0.563 -0.563)" fill="#fff"/>
</svg>
