<svg xmlns="http://www.w3.org/2000/svg" width="32.666" height="22.7" viewBox="0 0 32.666 22.7">
  <path id="Icon_zocial-email" data-name="Icon zocial-email" d="M.072,22.935V5.9q0-.03.089-.562l10.025,8.576-10,9.611a2.506,2.506,0,0,1-.118-.591ZM1.4,4.157a1.274,1.274,0,0,1,.5-.089h27a1.675,1.675,0,0,1,.532.089L19.383,12.762l-1.331,1.065L15.42,15.986l-2.632-2.159-1.331-1.065Zm.03,20.523,10.084-9.67,3.9,3.164,3.9-3.164,10.084,9.67a1.42,1.42,0,0,1-.5.089h-27a1.339,1.339,0,0,1-.473-.089ZM20.654,13.916l10-8.576a1.765,1.765,0,0,1,.089.562V22.935a2.267,2.267,0,0,1-.089.591Z" transform="translate(0.928 -3.068)" fill="none" stroke="#292e32" stroke-width="2"/>
</svg>
