<svg xmlns="http://www.w3.org/2000/svg" width="24.22" height="27.911" viewBox="0 0 24.22 27.911">
  <path id="Icon_material-lock-outline" data-name="Icon material-lock-outline" d="M18.11,22.766a2.869,2.869,0,0,0,3.027-2.658,2.869,2.869,0,0,0-3.027-2.658,2.869,2.869,0,0,0-3.027,2.658A2.869,2.869,0,0,0,18.11,22.766ZM27.192,10.8H25.679V8.146c0-3.668-3.391-6.646-7.569-6.646s-7.569,2.977-7.569,6.646V10.8H9.027A2.869,2.869,0,0,0,6,13.462V26.753a2.869,2.869,0,0,0,3.027,2.658H27.192a2.869,2.869,0,0,0,3.027-2.658V13.462A2.869,2.869,0,0,0,27.192,10.8ZM13.417,8.146a4.438,4.438,0,0,1,4.693-4.12A4.438,4.438,0,0,1,22.8,8.146V10.8H13.417ZM27.192,26.753H9.027V13.462H27.192Z" transform="translate(-6 -1.5)" fill="#292e32"/>
</svg>
