<svg xmlns="http://www.w3.org/2000/svg" width="29.336" height="29.391" viewBox="0 0 29.336 29.391">
  <path id="Icon_feather-phone" data-name="Icon feather-phone" d="M30.5,23.505v4.123a2.749,2.749,0,0,1-3,2.749,27.2,27.2,0,0,1-11.861-4.219A26.8,26.8,0,0,1,7.4,17.912,27.2,27.2,0,0,1,3.179,6,2.749,2.749,0,0,1,5.914,3h4.123a2.749,2.749,0,0,1,2.749,2.364,17.647,17.647,0,0,0,.962,3.862,2.749,2.749,0,0,1-.618,2.9l-1.745,1.745a21.99,21.99,0,0,0,8.246,8.246l1.745-1.745a2.749,2.749,0,0,1,2.9-.618,17.647,17.647,0,0,0,3.862.962A2.749,2.749,0,0,1,30.5,23.505Z" transform="translate(-2.167 -2)" fill="none" stroke="#000" stroke-linecap="round" stroke-linejoin="round" stroke-width="2"/>
</svg>
