<svg xmlns="http://www.w3.org/2000/svg" width="25.431" height="27.127" viewBox="0 0 25.431 27.127">
  <path id="Icon_metro-calendar" data-name="Icon metro-calendar" d="M11.048,12.1h3.391v3.391H11.048Zm5.086,0h3.391v3.391H16.134Zm5.086,0h3.391v3.391H21.22ZM5.962,22.273H9.352v3.391H5.962Zm5.086,0h3.391v3.391H11.048Zm5.086,0h3.391v3.391H16.134Zm-5.086-5.086h3.391v3.391H11.048Zm5.086,0h3.391v3.391H16.134Zm5.086,0h3.391v3.391H21.22Zm-15.259,0H9.352v3.391H5.962ZM24.611,1.928v1.7H21.22v-1.7H9.352v1.7H5.962v-1.7H2.571V29.055H28V1.928H24.611Zm1.7,25.431H4.266V8.71h22.04Z" transform="translate(-2.571 -1.928)" fill="#292e32"/>
</svg>
