<svg xmlns="http://www.w3.org/2000/svg" width="105.902" height="114.727" viewBox="0 0 105.902 114.727">
  <path id="Icon_ionic-md-hand" data-name="Icon ionic-md-hand" d="M106.267,64.095c-3.735-3.733-9.233-4.069-12.968-.336L82.624,74.429C79.845,77.2,76.5,77.209,74.54,74.9c-1.3-1.528-.784-6.242-.421-9.232l5.354-44.008A7.178,7.178,0,1,0,65.23,19.931L59.324,54.5c-.309.86-.971,1.008-1.045-.149L56.269,9.42a7.174,7.174,0,0,0-14.348,0l-.141,45.264c.037.522-.411.672-.492.075L34.905,19.428a7.331,7.331,0,0,0-8.335-6.006,7.4,7.4,0,0,0-5.785,8.554l5.683,41.346c.006.735-.241,1.156-.591.213L17.4,40.867a7.3,7.3,0,0,0-9.162-4.581,7.417,7.417,0,0,0-4.359,9.381l14.864,48.56c.078.268.16.534.244.8l.031.1c0,.008.006.015.009.023A31.622,31.622,0,0,0,49.1,116.977a42.787,42.787,0,0,0,25.444-8.623h0c7.68-4.623,32.285-31.075,32.285-31.075C110.561,73.545,110,67.829,106.267,64.095Z" transform="translate(-3.462 -2.25)" fill="#fff"/>
</svg>
