<svg xmlns="http://www.w3.org/2000/svg" xmlns:xlink="http://www.w3.org/1999/xlink" width="33.391" height="33.391" viewBox="0 0 33.391 33.391"><defs><radialGradient id="a" cx="0.372" cy="1.001" r="1.247" gradientUnits="objectBoundingBox"><stop offset="0" stop-color="#fd5"/><stop offset="0.328" stop-color="#ff543f"/><stop offset="0.348" stop-color="#fc5245"/><stop offset="0.504" stop-color="#e64771"/><stop offset="0.643" stop-color="#d53e91"/><stop offset="0.761" stop-color="#cc39a4"/><stop offset="0.841" stop-color="#c837ab"/></radialGradient><radialGradient id="b" cx="0.161" cy="-0.012" r="0.828" gradientTransform="translate(0 -0.004) scale(1 0.666)" gradientUnits="objectBoundingBox"><stop offset="0" stop-color="#4168c9"/><stop offset="0.999" stop-color="#4168c9" stop-opacity="0"/></radialGradient></defs><path d="M31.972,39.363l-18.541.018a7.439,7.439,0,0,1-7.424-7.409L5.99,13.431A7.439,7.439,0,0,1,13.4,6.008L31.94,5.99A7.439,7.439,0,0,1,39.363,13.4l.018,18.541A7.437,7.437,0,0,1,31.972,39.363Z" transform="translate(-5.99 -5.99)" fill="url(#a)"/><path d="M31.972,39.363l-18.541.018a7.439,7.439,0,0,1-7.424-7.409L5.99,13.431A7.439,7.439,0,0,1,13.4,6.008L31.94,5.99A7.439,7.439,0,0,1,39.363,13.4l.018,18.541A7.437,7.437,0,0,1,31.972,39.363Z" transform="translate(-5.99 -5.99)" fill="url(#b)"/><path d="M23.489,29.979a6.489,6.489,0,1,1,6.489-6.489A6.5,6.5,0,0,1,23.489,29.979Zm0-11.124a4.635,4.635,0,1,0,4.635,4.635A4.64,4.64,0,0,0,23.489,18.854Z" transform="translate(-6.793 -6.793)" fill="#fff"/><ellipse cx="1.391" cy="1.391" rx="1.391" ry="1.391" transform="translate(22.258 8.353)" fill="#fff"/><path d="M28.614,35.1H17.489A6.5,6.5,0,0,1,11,28.614V17.489A6.5,6.5,0,0,1,17.489,11H28.614A6.5,6.5,0,0,1,35.1,17.489V28.614A6.5,6.5,0,0,1,28.614,35.1ZM17.489,12.854a4.64,4.64,0,0,0-4.635,4.635V28.614a4.64,4.64,0,0,0,4.635,4.635H28.614a4.64,4.64,0,0,0,4.635-4.635V17.489a4.64,4.64,0,0,0-4.635-4.635Z" transform="translate(-6.356 -6.356)" fill="#fff"/></svg>