<svg xmlns="http://www.w3.org/2000/svg" width="31.556" height="31.556" viewBox="0 0 31.556 31.556"><path d="M37.556,33.173a4.382,4.382,0,0,1-4.383,4.383H10.383A4.383,4.383,0,0,1,6,33.173V10.383A4.383,4.383,0,0,1,10.383,6h22.79a4.382,4.382,0,0,1,4.383,4.383Z" transform="translate(-6 -6)" fill="#0288d1"/><path d="M12,18.136h4.383v14.9H12Zm2.178-1.753h-.025A2.1,2.1,0,0,1,12,14.191,2.108,2.108,0,0,1,14.2,12a2.1,2.1,0,0,1,2.179,2.191A2.11,2.11,0,0,1,14.178,16.383ZM33.037,33.037H28.654V25.061c0-1.927-1.074-3.241-2.8-3.241a2.513,2.513,0,0,0-2.373,1.744,6.322,6.322,0,0,0-.089,1.584v7.889H19.012v-14.9H23.4v2.293a4.433,4.433,0,0,1,4.153-2.293c3.136,0,5.488,1.972,5.488,6.376v8.525Z" transform="translate(-6.741 -6.741)" fill="#fff"/></svg>