<?xml version="1.0" standalone="no"?>
<!DOCTYPE svg PUBLIC "-//W3C//DTD SVG 20010904//EN"
 "http://www.w3.org/TR/2001/REC-SVG-20010904/DTD/svg10.dtd">
<svg version="1.0" xmlns="http://www.w3.org/2000/svg"
 width="360.000000pt" height="360.000000pt" viewBox="0 0 360.000000 360.000000"
 preserveAspectRatio="xMidYMid meet">
<metadata>
Created by potrace 1.16, written by Peter Selinger 2001-2019
</metadata>
<g transform="translate(0.000000,360.000000) scale(0.100000,-0.100000)"
fill="#000000" stroke="none">
<path d="M1645 3324 c-351 -40 -649 -177 -897 -413 -342 -325 -506 -756 -467
-1231 18 -219 61 -376 156 -567 91 -185 211 -339 368 -472 124 -106 191 -150
325 -214 137 -66 204 -89 341 -119 92 -20 131 -23 334 -23 198 1 243 4 325 22
141 32 242 68 370 134 328 168 601 467 726 796 42 111 51 143 75 253 20 90 23
133 22 305 0 264 -26 396 -117 611 -132 312 -374 576 -683 746 -140 77 -348
143 -526 167 -72 10 -280 13 -352 5z m415 -160 c494 -93 903 -452 1059 -930
53 -163 65 -243 66 -429 0 -274 -53 -467 -199 -723 -42 -75 -128 -184 -206
-262 -207 -206 -458 -336 -760 -391 -94 -17 -374 -17 -450 0 -198 45 -243 59
-355 111 -406 190 -694 561 -781 1005 -21 112 -24 378 -5 480 80 420 309 757
656 964 90 53 228 116 295 135 96 26 133 35 195 45 39 6 88 13 110 15 71 7
298 -6 375 -20z"/>
<path d="M1600 3145 c-226 -35 -427 -118 -608 -252 -309 -229 -495 -553 -542
-943 -14 -116 -13 -188 5 -315 18 -123 20 -136 47 -225 26 -85 27 -88 88 -210
101 -201 221 -347 392 -475 99 -75 266 -167 363 -200 179 -60 240 -69 460 -69
196 0 217 1 311 26 297 79 541 233 738 467 218 259 336 652 296 986 -39 331
-165 593 -394 820 -145 145 -277 234 -453 306 -219 89 -471 119 -703 84z m474
-224 c316 -83 589 -295 739 -574 103 -192 142 -363 134 -592 -5 -144 -15 -198
-53 -315 -17 -50 -102 -232 -112 -240 -4 -3 -25 -32 -47 -65 -53 -79 -195
-221 -270 -270 -33 -22 -62 -42 -65 -46 -3 -4 -43 -24 -90 -46 -216 -101 -285
-117 -505 -117 -216 -1 -304 18 -491 105 -128 59 -218 122 -324 228 -164 163
-255 324 -317 559 -14 53 -18 107 -18 252 0 160 3 197 23 269 43 164 134 343
235 466 181 218 444 365 732 409 17 2 102 3 190 1 121 -3 179 -9 239 -24z"/>
<path d="M1078 2543 c-66 -65 -124 -126 -129 -136 -8 -15 15 -43 143 -170 84
-84 216 -217 292 -295 l140 -142 -290 -290 c-159 -160 -290 -294 -292 -298 -4
-12 255 -265 267 -261 6 2 141 134 299 292 l288 287 297 -297 297 -297 138
137 137 138 -298 296 -298 297 296 295 296 295 -133 133 c-73 73 -135 133
-138 133 -3 0 -137 -131 -299 -291 l-294 -291 -291 291 c-161 160 -296 291
-300 291 -5 0 -63 -53 -128 -117z"/>
</g>
</svg>
