<?xml version="1.0" standalone="no"?>
<!DOCTYPE svg PUBLIC "-//W3C//DTD SVG 20010904//EN"
 "http://www.w3.org/TR/2001/REC-SVG-20010904/DTD/svg10.dtd">
<svg version="1.0" xmlns="http://www.w3.org/2000/svg"
 width="2000.000000pt" height="2000.000000pt" viewBox="0 0 2000.000000 2000.000000"
 preserveAspectRatio="xMidYMid meet">
<metadata>
Created by potrace 1.16, written by Peter Selinger 2001-2019
</metadata>
<g transform="translate(0.000000,2000.000000) scale(0.100000,-0.100000)"
fill="#000000" stroke="none">
<path d="M10749 16546 c-2 -3 -103 -7 -223 -10 -120 -4 -223 -9 -228 -12 -5
-3 -44 -8 -86 -10 -78 -5 -119 -9 -137 -13 -5 -2 -28 -4 -50 -6 -22 -1 -56 -5
-75 -8 -19 -3 -51 -7 -70 -10 -19 -3 -65 -10 -101 -16 -37 -6 -87 -13 -111
-16 -25 -2 -80 -13 -124 -24 -43 -12 -96 -23 -116 -25 -71 -9 -113 -19 -139
-32 -15 -7 -29 -11 -32 -8 -7 7 -282 -65 -357 -93 -8 -4 -21 -5 -27 -4 -7 1
-13 -2 -13 -6 0 -4 -15 -9 -32 -10 -18 -2 -34 -7 -36 -13 -2 -6 -8 -7 -14 -4
-5 3 -24 -1 -41 -9 -18 -9 -67 -26 -109 -38 -43 -13 -78 -26 -78 -31 0 -4 -8
-8 -17 -8 -20 -1 -119 -32 -149 -48 -33 -17 -68 -31 -114 -47 -67 -23 -100
-39 -100 -48 0 -5 -4 -6 -9 -3 -5 3 -31 -5 -58 -18 -26 -13 -73 -35 -103 -48
-30 -12 -84 -38 -120 -55 -35 -18 -70 -33 -76 -33 -7 0 -14 -3 -16 -7 -1 -5
-25 -18 -53 -31 -27 -13 -57 -27 -65 -32 -8 -5 -40 -21 -70 -37 -30 -15 -75
-41 -100 -58 -24 -16 -49 -30 -55 -31 -17 -3 -280 -164 -283 -175 -2 -5 -8 -9
-14 -9 -6 0 -55 -30 -111 -67 -55 -38 -113 -76 -129 -86 -15 -11 -28 -23 -28
-28 0 -5 -5 -9 -10 -9 -12 0 -190 -128 -244 -175 -6 -5 -29 -23 -51 -40 -38
-28 -84 -66 -111 -92 -7 -7 -16 -13 -20 -13 -4 0 -17 -11 -30 -25 -13 -14 -28
-25 -33 -25 -6 0 -18 -11 -27 -25 -9 -14 -21 -25 -26 -25 -5 0 -36 -27 -68
-60 -32 -33 -62 -60 -67 -60 -9 0 -390 -380 -381 -380 4 0 -11 -17 -31 -37
-21 -21 -67 -72 -102 -113 -35 -41 -72 -84 -82 -95 -11 -11 -38 -45 -61 -75
-22 -30 -43 -57 -46 -60 -3 -3 -17 -21 -32 -42 -15 -20 -33 -42 -40 -50 -28
-29 -98 -128 -98 -138 0 -5 -4 -10 -8 -10 -11 0 -102 -133 -102 -149 0 -7 -4
-10 -9 -7 -5 3 -11 -2 -15 -12 -3 -9 -14 -29 -23 -43 -10 -15 -46 -68 -80
-119 -35 -51 -63 -96 -63 -101 0 -6 -8 -19 -18 -29 -17 -18 -36 -51 -83 -138
-9 -18 -22 -38 -27 -45 -35 -44 -263 -497 -256 -509 3 -4 1 -8 -5 -8 -8 0 -27
-40 -22 -48 0 -1 -8 -19 -19 -39 -11 -21 -20 -41 -20 -46 0 -4 -15 -40 -33
-80 -19 -40 -40 -88 -47 -107 -7 -19 -21 -54 -31 -77 -11 -24 -19 -49 -19 -57
0 -8 -4 -17 -9 -20 -5 -4 -12 -24 -16 -46 -4 -22 -11 -40 -17 -40 -6 0 -8 -7
-4 -15 3 -8 2 -15 -3 -15 -7 0 -37 -87 -45 -130 -3 -14 -8 -28 -37 -101 -5
-14 -16 -50 -24 -80 -7 -30 -23 -88 -35 -129 -12 -41 -27 -100 -35 -130 -7
-30 -18 -72 -25 -93 -6 -20 -9 -41 -5 -46 3 -5 1 -11 -5 -13 -5 -1 -10 -23
-12 -48 -2 -25 -6 -47 -10 -50 -9 -7 -40 -161 -33 -168 2 -3 1 -10 -5 -17 -5
-6 -11 -33 -14 -61 -3 -27 -10 -74 -15 -104 -17 -89 -40 -274 -35 -282 3 -5 1
-8 -4 -8 -7 0 -17 -100 -33 -355 0 -11 -3 -45 -5 -75 -12 -147 -14 -548 -5
-707 6 -98 13 -218 16 -267 3 -49 10 -94 16 -102 6 -7 8 -17 5 -23 -5 -8 0
-59 20 -196 3 -22 7 -47 9 -55 2 -8 6 -50 10 -93 4 -42 11 -80 16 -83 4 -2 6
-10 3 -18 -3 -7 0 -25 6 -41 6 -16 13 -53 16 -84 3 -31 9 -57 13 -59 5 -1 6
-14 3 -27 -2 -14 0 -25 4 -25 5 0 10 -19 12 -43 1 -23 7 -44 12 -45 6 -2 8 -7
5 -12 -5 -7 75 -336 94 -390 5 -14 19 -59 31 -100 13 -41 28 -88 35 -105 6
-16 20 -55 29 -85 10 -30 20 -62 24 -70 3 -8 6 -17 7 -20 1 -3 4 -12 8 -20 3
-8 11 -33 18 -55 13 -46 55 -152 69 -177 6 -10 10 -25 10 -33 0 -8 5 -15 11
-15 5 0 8 -4 4 -9 -3 -5 -1 -12 5 -16 5 -3 10 -15 10 -26 0 -10 5 -19 10 -19
6 0 9 -3 8 -7 -5 -20 15 -73 24 -67 6 4 8 3 5 -3 -3 -5 7 -36 22 -69 16 -32
36 -77 46 -99 9 -22 21 -48 26 -57 11 -22 18 -36 54 -108 16 -30 37 -68 49
-84 12 -19 14 -26 5 -21 -11 6 -10 4 2 -11 9 -10 26 -40 38 -66 13 -27 27 -48
32 -48 6 0 8 -4 4 -9 -3 -5 2 -16 10 -24 8 -9 15 -19 15 -23 0 -6 73 -134 113
-199 7 -10 30 -49 52 -85 21 -36 43 -67 47 -68 4 -2 8 -7 8 -12 0 -12 126
-199 206 -305 18 -25 96 -126 149 -195 22 -28 47 -60 55 -72 33 -44 116 -145
145 -175 16 -17 50 -56 75 -85 119 -141 488 -508 510 -508 6 0 8 -5 5 -10 -3
-6 -2 -10 3 -10 5 0 27 -17 49 -38 22 -20 62 -55 88 -77 27 -22 67 -57 89 -77
23 -21 49 -40 59 -43 9 -4 17 -10 17 -15 0 -5 15 -17 33 -29 17 -11 41 -28 52
-38 40 -37 144 -113 154 -113 6 0 11 -4 11 -8 0 -5 39 -36 87 -68 48 -32 93
-63 100 -69 7 -5 19 -16 27 -22 8 -7 18 -13 21 -13 4 0 22 -12 41 -26 19 -15
34 -24 34 -21 0 3 12 -5 26 -18 15 -14 30 -22 35 -19 5 3 9 0 9 -5 0 -6 7 -11
15 -11 8 0 15 -4 15 -8 0 -4 13 -16 30 -25 17 -10 30 -15 30 -12 0 3 15 -5 33
-19 19 -15 39 -26 45 -26 6 0 12 -4 14 -8 2 -5 28 -22 58 -39 30 -17 99 -56
154 -87 54 -31 103 -56 109 -56 6 0 18 -7 27 -15 9 -8 26 -16 39 -18 12 -2 26
-8 29 -14 4 -6 30 -20 57 -33 28 -12 86 -39 130 -60 67 -32 100 -46 135 -55 3
-1 22 -9 42 -19 21 -9 41 -16 44 -15 4 0 10 -3 13 -8 9 -12 71 -39 109 -47 17
-4 32 -11 32 -15 0 -7 104 -45 125 -46 6 0 12 -2 15 -5 11 -12 93 -39 101 -34
5 3 9 1 9 -5 0 -5 15 -12 33 -16 17 -4 98 -29 179 -57 81 -27 152 -47 158 -43
5 3 10 1 10 -5 0 -7 7 -10 15 -7 8 4 17 2 20 -4 4 -5 12 -9 18 -8 7 1 19 -1
27 -4 21 -9 180 -49 205 -52 11 -1 27 -5 35 -8 31 -13 112 -27 121 -22 5 4 9
1 9 -6 0 -6 8 -9 20 -6 11 3 23 1 26 -4 3 -6 14 -7 25 -4 11 4 19 2 19 -5 0
-8 10 -10 25 -8 14 3 25 1 25 -4 0 -6 16 -8 35 -6 19 2 35 0 35 -5 0 -4 8 -7
18 -5 9 1 23 -1 30 -6 7 -4 39 -8 72 -9 33 -1 60 -6 60 -10 0 -5 10 -7 23 -6
12 2 27 0 32 -3 6 -4 49 -9 96 -12 48 -3 140 -12 205 -21 65 -8 171 -18 234
-21 167 -9 655 -9 795 -1 66 5 139 8 163 7 23 0 69 4 101 10 33 6 85 11 115
12 31 1 56 4 56 7 0 3 17 7 38 7 50 2 115 10 182 23 30 6 77 13 104 16 27 3
54 9 60 14 7 6 22 8 34 4 12 -3 30 -2 39 3 10 4 21 8 26 9 4 2 10 4 15 5 4 1
16 2 28 1 11 -1 33 3 50 10 16 7 39 11 52 10 12 -1 22 1 22 6 0 4 12 9 28 10
35 2 219 47 228 55 3 4 12 4 20 1 8 -3 14 -1 14 5 0 5 6 9 13 9 24 -3 97 15
97 23 0 4 9 6 20 3 11 -3 20 -1 20 5 0 5 6 9 13 9 25 -2 87 16 87 25 0 5 4 6
10 3 5 -3 23 1 39 10 17 8 37 15 46 15 10 0 31 6 48 14 18 8 59 22 91 31 33 9
105 35 160 57 56 22 116 45 134 50 17 5 32 12 32 17 0 4 6 8 14 8 8 0 41 11
73 25 32 14 99 42 148 63 50 22 97 44 105 51 8 6 27 14 42 18 15 3 34 13 42
22 9 8 16 13 16 10 0 -9 295 146 433 228 43 25 81 46 84 46 3 0 19 10 36 23
18 12 48 30 67 41 61 32 140 88 140 98 0 5 5 6 10 3 6 -3 10 -1 10 4 0 6 7 11
15 11 8 0 15 5 15 10 0 6 5 10 11 10 9 0 183 118 222 150 7 6 30 24 52 41 22
16 47 35 55 42 9 7 33 25 55 41 22 17 42 32 45 35 3 4 25 22 50 41 25 19 56
44 70 56 14 12 60 51 102 87 42 36 74 67 71 71 -4 3 1 6 10 6 16 0 469 446
542 533 22 27 57 67 79 90 21 23 46 53 54 67 9 14 25 31 34 38 10 7 18 20 18
28 0 8 7 17 14 20 8 3 34 31 57 62 24 31 49 63 56 72 7 8 26 33 42 55 17 22
35 45 39 50 5 6 17 24 28 40 10 17 29 41 42 55 12 14 25 33 28 43 3 9 10 17
15 17 5 0 9 4 9 10 0 5 23 41 50 80 28 39 50 75 50 80 0 6 5 10 10 10 6 0 10
4 10 9 0 5 18 36 40 69 22 33 40 63 40 66 0 4 5 12 10 19 18 22 168 277 162
277 -3 0 2 8 10 18 9 9 24 35 35 57 11 22 44 90 75 150 112 224 197 409 205
447 3 15 9 28 14 28 5 0 9 5 9 12 0 9 102 285 131 353 4 11 20 58 34 105 15
47 33 103 41 125 8 23 14 50 14 62 0 12 4 24 9 27 5 3 11 18 14 33 3 16 17 68
31 117 14 48 25 91 24 95 -1 3 1 13 4 21 6 16 61 254 77 335 21 99 50 289 46
293 -2 3 0 12 4 21 5 9 12 43 15 76 4 33 11 101 17 150 21 185 26 262 35 460
10 226 11 371 2 558 -5 106 -9 222 -10 260 0 37 -5 67 -9 67 -5 0 -6 6 -3 14
3 8 -2 72 -10 143 -22 175 -25 193 -31 233 -3 19 -8 49 -10 65 -2 17 -7 41
-10 55 -3 14 -8 48 -10 75 -5 58 -38 227 -59 300 -14 48 -36 145 -57 250 -5
28 -13 59 -18 70 -14 34 -29 88 -37 128 -3 20 -10 37 -16 37 -5 0 -7 4 -4 9 5
8 -4 45 -22 91 -3 8 -6 18 -6 22 -1 3 -4 10 -8 14 -5 4 -8 13 -8 20 0 7 -5 25
-12 41 -6 15 -10 34 -9 41 1 7 -5 22 -14 34 -8 13 -15 29 -15 37 0 15 -50 158
-76 218 -8 17 -14 36 -14 42 0 6 -4 11 -10 11 -5 0 -6 7 -3 17 5 12 3 14 -7 8
-9 -5 -11 -4 -6 4 4 6 3 17 -2 24 -6 7 -22 43 -36 81 -15 38 -30 74 -35 80 -4
6 -15 29 -23 51 -32 81 -53 125 -60 125 -5 0 -8 9 -8 20 0 11 -5 20 -10 20 -6
0 -10 3 -9 8 2 15 -14 52 -23 52 -5 0 -6 4 -3 10 3 5 -1 20 -8 32 -8 13 -32
57 -55 98 -111 209 -191 347 -269 467 -29 46 -53 85 -53 87 0 7 -87 134 -121
177 -16 20 -29 40 -29 44 0 4 -20 32 -45 64 -25 31 -45 60 -45 64 0 6 -25 38
-55 71 -6 6 -22 27 -35 46 -14 19 -30 42 -37 50 -23 30 -127 155 -133 160 -3
3 -25 30 -50 60 -158 196 -597 633 -731 727 -9 7 -33 27 -52 45 -77 72 -223
191 -292 239 -59 40 -63 43 -95 70 -22 18 -222 156 -267 184 -9 6 -25 17 -35
25 -10 8 -21 14 -24 12 -2 -1 -14 7 -26 17 -11 11 -25 18 -30 15 -4 -3 -8 -1
-8 4 0 5 -12 15 -27 23 -16 7 -41 23 -58 35 -130 91 -844 454 -895 454 -6 0
-21 6 -33 14 -12 8 -44 22 -72 31 -27 9 -68 24 -90 34 -22 10 -51 21 -65 25
-23 7 -76 26 -125 47 -11 4 -40 14 -65 20 -25 7 -49 16 -54 21 -6 4 -22 8 -36
8 -15 0 -30 3 -34 7 -3 4 -12 8 -19 10 -7 1 -45 14 -86 27 -41 14 -76 24 -78
22 -3 -2 -16 2 -30 9 -15 8 -30 12 -34 9 -5 -3 -22 2 -40 11 -17 9 -33 14 -36
11 -3 -3 -21 1 -41 10 -19 8 -37 12 -40 9 -2 -2 -12 0 -22 5 -9 5 -32 12 -51
15 -19 3 -59 12 -89 20 -30 8 -68 16 -85 19 -48 9 -68 13 -110 24 -22 6 -60
13 -85 15 -25 3 -52 7 -60 10 -8 3 -34 8 -57 11 -22 3 -52 8 -65 10 -12 3 -45
8 -73 11 -27 3 -63 7 -80 10 -16 3 -55 8 -85 10 -30 3 -77 8 -105 11 -138 14
-166 16 -237 18 -42 0 -75 3 -73 6 2 3 -48 5 -111 5 -63 0 -114 4 -114 9 0 4
-10 5 -22 1 -27 -8 -19 -7 -129 0 -47 3 -87 3 -90 1z m331 -531 c96 -3 189 -7
205 -10 17 -2 84 -7 150 -10 106 -6 368 -39 495 -64 44 -9 114 -21 235 -42 33
-6 133 -30 223 -55 89 -24 171 -44 181 -44 11 0 93 -25 183 -56 89 -31 172
-57 183 -59 25 -3 224 -82 267 -105 10 -6 25 -10 34 -10 10 0 42 -12 73 -26
31 -15 88 -42 128 -60 39 -19 74 -34 78 -34 13 0 138 -62 184 -91 25 -16 52
-29 61 -29 9 0 65 -29 125 -65 59 -36 112 -65 116 -65 11 0 104 -55 143 -85
17 -12 47 -30 66 -38 20 -8 42 -21 50 -28 8 -8 74 -54 147 -102 73 -48 139
-94 147 -102 8 -8 17 -15 21 -15 9 0 119 -83 128 -98 4 -6 25 -21 45 -31 21
-11 56 -37 79 -59 22 -22 65 -58 94 -80 30 -22 72 -58 94 -81 21 -23 44 -41
49 -41 30 0 579 -565 664 -683 13 -18 40 -50 60 -72 54 -58 102 -121 102 -133
0 -6 6 -15 13 -19 8 -4 33 -35 57 -68 24 -33 47 -62 51 -65 4 -3 17 -23 29
-45 12 -22 34 -55 49 -74 33 -44 101 -142 101 -147 0 -3 29 -48 63 -102 35
-53 87 -140 116 -192 29 -52 65 -115 80 -140 15 -25 43 -79 62 -120 19 -41 58
-120 87 -175 29 -55 56 -113 59 -130 3 -16 19 -55 35 -86 15 -31 28 -59 28
-62 0 -4 11 -30 24 -59 62 -138 86 -198 86 -216 0 -11 12 -51 26 -88 52 -139
135 -400 143 -454 5 -30 20 -100 35 -155 48 -184 107 -483 121 -610 3 -27 7
-66 10 -85 18 -142 25 -205 30 -275 3 -44 8 -109 11 -145 7 -94 7 -580 -1
-680 -10 -138 -24 -289 -34 -385 -6 -49 -12 -117 -15 -150 -6 -71 -26 -185
-61 -350 -14 -66 -30 -149 -36 -185 -5 -36 -14 -81 -20 -100 -6 -19 -14 -48
-19 -65 -14 -58 -33 -120 -51 -179 -11 -33 -19 -70 -19 -82 0 -19 -35 -121
-71 -209 -4 -11 -27 -76 -50 -145 -23 -69 -56 -156 -74 -195 -17 -38 -35 -82
-38 -97 -14 -56 -234 -506 -312 -638 -24 -41 -51 -89 -59 -107 -8 -17 -37 -65
-64 -105 -28 -41 -57 -90 -66 -109 -9 -19 -38 -63 -65 -99 -27 -36 -50 -68
-50 -73 -1 -4 -27 -41 -58 -83 -32 -42 -62 -84 -68 -93 -23 -36 -94 -127 -114
-145 -11 -10 -19 -22 -16 -26 2 -4 -24 -38 -59 -76 -34 -38 -65 -75 -67 -81
-5 -15 -108 -129 -196 -217 -35 -34 -63 -65 -63 -69 0 -6 -71 -77 -117 -118
-10 -9 -25 -25 -34 -35 -31 -35 -163 -159 -269 -251 -58 -50 -114 -100 -124
-112 -11 -11 -24 -21 -30 -21 -7 0 -32 -18 -56 -41 -25 -22 -63 -54 -85 -70
-22 -17 -80 -60 -129 -97 -48 -37 -113 -82 -144 -100 -31 -19 -59 -37 -62 -41
-10 -14 -137 -97 -190 -125 -30 -15 -64 -36 -75 -45 -22 -19 -143 -91 -152
-91 -4 0 -52 -27 -109 -60 -56 -33 -106 -60 -111 -60 -4 0 -19 -9 -33 -20 -14
-11 -32 -20 -40 -20 -8 0 -87 -36 -175 -80 -88 -44 -165 -80 -171 -80 -6 0
-71 -25 -145 -56 -74 -31 -162 -66 -197 -79 -35 -12 -66 -25 -69 -29 -4 -3
-16 -6 -29 -6 -12 0 -78 -19 -145 -41 -68 -23 -137 -45 -154 -50 -16 -4 -84
-23 -150 -43 -66 -20 -158 -41 -204 -47 -47 -5 -88 -12 -92 -14 -24 -16 -405
-81 -584 -101 -22 -2 -78 -9 -125 -15 -157 -19 -383 -27 -660 -23 -151 2 -295
6 -320 8 -25 3 -119 10 -210 15 -91 6 -176 12 -190 15 -14 3 -71 12 -128 21
-56 8 -146 25 -200 36 -53 11 -128 24 -167 29 -72 10 -307 67 -384 94 -24 9
-57 16 -72 16 -16 0 -37 4 -47 9 -21 12 -247 87 -319 106 -28 8 -95 33 -150
55 -54 23 -123 50 -153 60 -52 17 -142 57 -222 100 -20 11 -43 20 -51 20 -16
0 -365 176 -387 196 -9 7 -42 25 -74 39 -32 14 -72 36 -90 49 -17 13 -78 51
-136 86 -58 35 -114 71 -125 81 -11 9 -42 29 -69 44 -26 15 -76 49 -109 76
-34 27 -65 49 -69 49 -8 0 -123 88 -231 177 -32 26 -71 57 -86 68 -15 11 -58
47 -96 80 -331 290 -634 607 -854 892 -39 50 -75 94 -81 98 -6 3 -19 24 -31
46 -11 22 -28 48 -37 57 -24 24 -113 150 -135 191 -10 19 -36 57 -57 85 -20
28 -59 89 -86 136 -26 47 -61 104 -76 127 -26 39 -69 119 -177 328 -20 39 -39
72 -43 73 -5 2 -8 13 -8 24 0 11 -15 50 -34 87 -63 122 -105 215 -136 306 -18
50 -40 108 -49 130 -41 94 -73 186 -121 350 -6 22 -29 101 -51 175 -23 74 -45
151 -50 170 -44 175 -70 298 -79 365 -5 44 -18 134 -29 200 -29 177 -40 258
-51 380 -6 61 -12 133 -15 160 -17 178 -11 921 9 1040 2 17 10 73 16 125 11
90 29 208 50 329 6 30 10 68 10 84 0 28 19 114 79 357 15 63 34 140 41 170 7
30 32 113 56 185 24 71 44 137 44 145 0 9 27 85 60 170 33 85 60 160 60 166 0
7 27 71 60 142 33 72 60 135 60 139 0 5 46 99 101 208 56 110 117 231 136 269
19 38 41 76 49 83 7 8 38 58 69 113 31 55 71 120 90 145 19 24 41 60 49 79 8
18 29 51 48 72 40 47 78 100 78 111 0 4 27 42 60 83 33 41 60 80 60 87 0 6 6
16 14 20 7 4 36 37 65 73 28 36 56 71 62 79 7 7 52 61 102 120 49 58 128 147
176 197 47 51 93 100 102 110 9 11 65 64 124 119 59 55 128 121 153 148 25 26
49 47 55 47 5 0 35 24 66 53 32 29 95 81 142 116 46 35 99 79 118 98 19 18 39
33 46 33 6 0 35 20 64 45 28 24 97 74 151 110 55 35 123 83 152 105 29 22 58
40 65 40 6 0 40 19 75 42 35 23 79 52 98 63 19 12 47 29 62 38 15 10 34 17 42
17 8 0 21 6 28 14 16 15 118 74 193 110 193 94 327 156 335 156 6 0 10 4 10 9
0 5 21 14 47 20 25 7 74 25 107 40 34 16 72 32 86 36 14 4 30 11 35 15 6 4 28
13 50 20 22 7 59 21 83 32 23 10 57 21 75 24 17 3 41 9 52 14 29 12 190 63
345 108 132 39 173 49 295 72 33 6 114 22 180 36 293 61 657 102 985 111 124
3 226 7 228 8 2 2 11 1 20 -1 9 -1 96 -5 192 -9z"/>
<path d="M10641 14614 c-85 -23 -150 -63 -228 -140 -78 -78 -112 -135 -139
-235 -16 -55 -18 -111 -18 -419 -1 -195 3 -591 8 -880 5 -289 10 -631 11 -760
3 -348 14 -1081 20 -1350 3 -129 8 -422 11 -650 7 -525 13 -949 18 -1350 3
-173 7 -517 10 -765 10 -826 18 -929 81 -1061 34 -69 92 -139 178 -211 118
-99 343 -108 510 -20 72 38 174 145 207 217 14 30 28 58 33 61 4 3 14 37 22
75 12 58 14 153 7 619 -4 303 -7 634 -7 738 0 103 -2 187 -5 187 -3 0 -5 87
-5 193 0 105 -4 444 -9 752 -4 308 -10 688 -12 845 -6 477 -12 899 -21 1475
-4 303 -8 637 -8 743 0 105 -2 192 -5 192 -3 0 -5 89 -6 198 -3 1041 -10 1141
-87 1287 -38 71 -155 194 -214 224 -100 50 -243 64 -352 35z"/>
<path d="M10820 5899 c-25 -5 -58 -11 -73 -14 -15 -2 -49 -16 -75 -31 -26 -15
-59 -33 -73 -40 -24 -13 -93 -94 -132 -156 -52 -83 -92 -276 -76 -364 34 -182
127 -315 266 -381 32 -16 60 -31 63 -34 27 -32 239 -46 315 -20 202 70 320
194 369 389 67 266 -88 558 -336 633 -77 23 -188 31 -248 18z"/>
</g>
</svg>
