<svg xmlns="http://www.w3.org/2000/svg" width="28.679" height="20.506" viewBox="0 0 28.679 20.506"><path d="M28.676,16.525a2.743,2.743,0,0,0-1.3-2.084,11.462,11.462,0,0,0-4.125-1.96,5.9,5.9,0,0,0-4.741.962l-.006,0-1.515,1.075a23.6,23.6,0,0,1-4.776-2.641l-.147-.105A18.183,18.183,0,0,1,8.371,8.361l1.5-1.083.006,0c1.39-1.018,1.843-2.158,1.345-3.39A7.754,7.754,0,0,0,8.485.934,5.142,5.142,0,0,0,5.57,0a5.343,5.343,0,0,0-3,.778L2.537.8l-.044.03A5.622,5.622,0,0,0,0,5.592c.023,3.293,2.554,7.059,6.771,10.074a26.751,26.751,0,0,0,2.686,1.672,1.438,1.438,0,0,0,1.571-.148.663.663,0,0,0-.207-1.123,24.583,24.583,0,0,1-2.465-1.534C4.547,11.81,2.261,8.465,2.241,5.584A4.244,4.244,0,0,1,4.057,1.979l.009-.006a2.621,2.621,0,0,1,2.807.072c2.9,2.151,2.69,3.166,1.409,4.106L6.2,7.647a.643.643,0,0,0-.228.89,17.452,17.452,0,0,0,4.5,4.371l.147.105a24.264,24.264,0,0,0,6.112,3.22,1.465,1.465,0,0,0,1.245-.163l2.092-1.485c1.314-.916,2.734-1.066,5.742,1.007a1.171,1.171,0,0,1,.1,2.007l-.008.006a8.649,8.649,0,0,1-4.991,1.3h-.051a19.469,19.469,0,0,1-5.528-.936,1.322,1.322,0,0,0-1.472.418c-.245.406.017.878.585,1.053a22.169,22.169,0,0,0,6.4,1.067h.063a11.3,11.3,0,0,0,6.595-1.783l.041-.031.029-.023A2.588,2.588,0,0,0,28.676,16.525Z" transform="translate(0 -0.001)" fill="#292e32"/></svg>