<svg xmlns="http://www.w3.org/2000/svg" width="30.681" height="27.39" viewBox="0 0 30.681 27.39">
  <path id="Trazado_2158" data-name="Trazado 2158" d="M30.679,22.072a3.87,3.87,0,0,0-1.392-2.784,11.359,11.359,0,0,0-4.413-2.618A5.337,5.337,0,0,0,19.8,17.955l-.007.006L18.174,19.4a24.223,24.223,0,0,1-5.109-3.528l-.158-.141a22.121,22.121,0,0,1-3.951-4.561l1.608-1.447.007-.006A4.109,4.109,0,0,0,12.01,5.187a9.92,9.92,0,0,0-2.932-3.94A4.8,4.8,0,0,0,5.959,0,4.873,4.873,0,0,0,2.749,1.043l-.034.028-.047.04A8.183,8.183,0,0,0,0,7.469c.025,4.4,2.733,9.429,7.244,13.456a28.511,28.511,0,0,0,2.873,2.234,1.3,1.3,0,0,0,1.68-.2,1,1,0,0,0-.222-1.5,26.2,26.2,0,0,1-2.637-2.049C4.864,15.774,2.419,11.306,2.4,7.458A6.215,6.215,0,0,1,4.341,2.643l.009-.007a2.345,2.345,0,0,1,3,.1c3.1,2.873,2.878,4.229,1.507,5.484l-2.222,2A.987.987,0,0,0,6.394,11.4a21.789,21.789,0,0,0,4.819,5.838l.158.141a24.431,24.431,0,0,0,6.539,4.3,1.307,1.307,0,0,0,1.332-.218l2.238-1.983c1.406-1.224,2.925-1.425,6.143,1.345a1.781,1.781,0,0,1,.109,2.68l-.009.008a7.913,7.913,0,0,1-5.339,1.735h-.055A17.106,17.106,0,0,1,16.415,24a1.257,1.257,0,0,0-1.575.559,1.03,1.03,0,0,0,.626,1.406,19.469,19.469,0,0,0,6.851,1.425h.067A10.378,10.378,0,0,0,29.44,25.01l.044-.042.031-.031A3.8,3.8,0,0,0,30.679,22.072Z" transform="translate(0 -0.002)" fill="#292e32"/>
</svg>
