<svg xmlns="http://www.w3.org/2000/svg" width="33.282" height="33.282" viewBox="0 0 33.282 33.282"><path d="M20.641,4A16.641,16.641,0,1,0,37.282,20.641,16.641,16.641,0,0,0,20.641,4Z" transform="translate(-4 -4)" fill="#03a9f4"/><path d="M31.969,16.764a9.341,9.341,0,0,1-2.5.732,6.087,6.087,0,0,0,2.5-2.5,11.911,11.911,0,0,1-3.156,1.142,4.021,4.021,0,0,0-6.829,3.019v1.664c-3.328,0-6.573-2.535-8.593-4.992a4.005,4.005,0,0,0-.555,2.044c0,1.514,1.39,3.049,2.491,3.78a7.723,7.723,0,0,1-2.5-.832v.047a3.73,3.73,0,0,0,3.255,3.679,5.21,5.21,0,0,1-2.363.433c.521,1.61,3.139,2.461,4.932,2.5a10.514,10.514,0,0,1-5.824,1.664A6.131,6.131,0,0,1,12,29.126a12.939,12.939,0,0,0,6.656,1.683A11.177,11.177,0,0,0,30.305,19.684c0-.176-.006-.767-.015-.94a6.322,6.322,0,0,0,1.679-1.98" transform="translate(-5.344 -5.847)" fill="#fff"/></svg>