<svg xmlns="http://www.w3.org/2000/svg" width="20" height="16.657" viewBox="0 0 20 16.657"><path d="M18.281,4.14c-.156,7.188-4.687,12.188-11.562,12.5A11.373,11.373,0,0,1,0,14.765a8.3,8.3,0,0,0,6.094-1.719,4.221,4.221,0,0,1-3.906-2.969,6.3,6.3,0,0,0,1.719,0A4.256,4.256,0,0,1,.625,5.858a3.15,3.15,0,0,0,1.719.469C.938,5.546,0,2.577,1.094.7A12.382,12.382,0,0,0,9.688,5.077C8.594.7,14.531-1.642,16.875,1.327A10.526,10.526,0,0,0,19.531.39a4.418,4.418,0,0,1-1.719,2.344A8.957,8.957,0,0,0,20,2.108c-.156.781-.937,1.406-1.719,2.031Z" fill="#fff"/></svg>