<svg xmlns="http://www.w3.org/2000/svg" width="23.778" height="20.354" viewBox="0 0 23.778 20.354"><path d="M23.718,17.441a.936.936,0,0,0-1.1-.616.806.806,0,0,0-.72.94.744.744,0,0,1-.2.7,1,1,0,0,1-.743.3H2.819a1,1,0,0,1-.743-.3.744.744,0,0,1-.2-.7c.964-3.963,5.048-6.858,9.764-6.956q.123,0,.246,0t.247,0a10.735,10.735,0,0,1,8.252,3.882,1.029,1.029,0,0,0,1.289.218.728.728,0,0,0,.254-1.1,12.06,12.06,0,0,0-6.261-4.071,5.192,5.192,0,0,0,2.534-4.328C18.206,2.425,15.372,0,11.89,0S5.573,2.425,5.573,5.407a5.193,5.193,0,0,0,2.537,4.33,12.79,12.79,0,0,0-3.892,1.831A10.247,10.247,0,0,0,.061,17.441a2.162,2.162,0,0,0,.574,2.024,3.007,3.007,0,0,0,2.184.889H20.96a3.007,3.007,0,0,0,2.184-.889A2.162,2.162,0,0,0,23.718,17.441ZM7.431,5.407c0-2.1,2-3.816,4.458-3.816S16.348,3.3,16.348,5.407a4.142,4.142,0,0,1-4.233,3.812l-.226,0-.225,0A4.142,4.142,0,0,1,7.431,5.407Z" transform="translate(0)" fill="#292e32"/></svg>