<?xml version="1.0" standalone="no"?>
<!DOCTYPE svg PUBLIC "-//W3C//DTD SVG 20010904//EN"
 "http://www.w3.org/TR/2001/REC-SVG-20010904/DTD/svg10.dtd">
<svg version="1.0" xmlns="http://www.w3.org/2000/svg"
 width="1280.000000pt" height="1280.000000pt" viewBox="0 0 1280.000000 1280.000000"
 preserveAspectRatio="xMidYMid meet">
<metadata>
Created by potrace 1.16, written by Peter Selinger 2001-2019
</metadata>
<g transform="translate(0.000000,1280.000000) scale(0.100000,-0.100000)"
fill="#000000" stroke="none">
<path d="M5951 12550 c-106 -5 -207 -14 -224 -19 -16 -6 -51 -11 -76 -11 -25
-1 -66 -5 -91 -11 -25 -5 -83 -14 -130 -19 -47 -6 -94 -14 -105 -19 -19 -9
-131 -30 -274 -51 -36 -5 -67 -14 -70 -18 -3 -5 -28 -12 -55 -15 -27 -4 -54
-11 -60 -16 -6 -5 -33 -12 -61 -16 -27 -4 -64 -13 -81 -20 -17 -7 -50 -16 -73
-20 -22 -4 -41 -11 -41 -16 0 -5 -12 -9 -28 -9 -15 0 -36 -6 -47 -13 -11 -8
-46 -19 -77 -26 -32 -7 -60 -16 -63 -21 -3 -4 -23 -11 -45 -15 -22 -4 -40 -10
-40 -14 0 -3 -19 -12 -42 -18 -67 -17 -139 -44 -187 -70 -24 -13 -48 -23 -53
-23 -9 0 -52 -19 -183 -80 -134 -62 -220 -104 -225 -109 -5 -6 -33 -19 -100
-50 -14 -6 -32 -15 -40 -20 -8 -6 -49 -29 -90 -53 -41 -23 -77 -46 -80 -49 -3
-4 -18 -11 -33 -14 -15 -4 -27 -11 -27 -16 0 -5 -6 -9 -14 -9 -7 0 -34 -16
-59 -35 -25 -19 -49 -35 -53 -35 -4 0 -39 -22 -78 -48 -39 -27 -100 -68 -136
-93 -36 -24 -69 -48 -75 -52 -5 -4 -44 -32 -85 -62 -41 -31 -77 -60 -81 -66
-3 -6 -8 -9 -10 -8 -5 3 -115 -80 -179 -136 -25 -22 -65 -56 -89 -75 -24 -19
-58 -48 -76 -65 -18 -16 -55 -50 -81 -74 -82 -73 -292 -282 -357 -355 -34 -38
-83 -91 -109 -118 -27 -28 -48 -53 -48 -57 0 -3 -15 -22 -33 -41 -19 -19 -58
-66 -87 -105 -30 -38 -61 -78 -69 -87 -9 -9 -28 -34 -44 -55 -15 -21 -45 -61
-67 -90 -22 -29 -40 -57 -40 -62 0 -5 -3 -11 -7 -13 -5 -1 -21 -23 -38 -48
-16 -25 -34 -50 -40 -56 -5 -6 -16 -20 -22 -30 -7 -11 -31 -47 -53 -80 -22
-34 -40 -66 -40 -72 0 -6 -3 -12 -7 -14 -12 -5 -63 -83 -63 -96 0 -7 -4 -12
-10 -12 -5 0 -10 -5 -10 -11 0 -6 -25 -53 -55 -104 -30 -52 -55 -98 -55 -104
0 -5 -3 -11 -8 -13 -4 -1 -27 -43 -52 -93 -25 -49 -48 -91 -52 -93 -5 -2 -8
-11 -8 -19 0 -8 -9 -32 -19 -52 -18 -34 -41 -83 -105 -223 -14 -31 -26 -61
-26 -66 0 -5 -10 -29 -23 -53 -26 -48 -52 -121 -69 -186 -6 -24 -15 -43 -19
-43 -4 0 -10 -18 -14 -40 -4 -22 -10 -42 -15 -45 -4 -3 -13 -29 -20 -57 -6
-29 -18 -67 -26 -85 -8 -17 -14 -40 -14 -52 0 -12 -4 -21 -10 -21 -5 0 -12
-23 -16 -50 -4 -28 -10 -53 -14 -55 -5 -3 -14 -38 -21 -78 -7 -39 -16 -77 -20
-82 -5 -6 -11 -31 -15 -55 -4 -25 -10 -50 -15 -56 -5 -6 -11 -37 -15 -70 -4
-32 -10 -63 -14 -69 -4 -5 -13 -50 -19 -100 -7 -49 -17 -99 -22 -110 -8 -19
-17 -75 -39 -275 -6 -47 -18 -146 -27 -220 -14 -110 -17 -216 -17 -575 1 -270
5 -473 12 -525 7 -47 17 -137 22 -200 6 -63 15 -124 20 -135 5 -11 11 -57 15
-103 3 -46 10 -91 14 -100 5 -9 17 -62 26 -117 29 -179 37 -220 45 -230 4 -5
11 -34 15 -62 4 -29 11 -55 15 -58 4 -3 11 -29 15 -58 4 -28 13 -65 21 -81 8
-16 14 -36 14 -45 0 -9 6 -28 14 -42 7 -14 16 -47 20 -73 4 -25 11 -46 15 -46
5 0 12 -21 16 -47 3 -27 13 -57 20 -69 7 -12 17 -37 20 -58 4 -20 11 -36 16
-36 5 0 9 -6 9 -14 0 -8 5 -27 12 -43 14 -34 13 -31 23 -68 4 -16 13 -41 20
-55 31 -63 55 -118 55 -128 0 -6 7 -23 15 -39 23 -44 55 -121 55 -132 0 -6 5
-11 10 -11 6 0 10 -5 10 -11 0 -15 112 -242 123 -250 5 -3 8 -8 7 -10 -4 -11
59 -130 121 -229 5 -8 15 -26 21 -40 7 -14 15 -27 18 -30 3 -3 11 -16 18 -30
7 -14 30 -52 52 -85 22 -33 57 -90 80 -127 22 -36 43 -68 47 -70 12 -5 53 -66
53 -78 0 -6 7 -13 15 -16 8 -4 15 -10 15 -15 0 -5 17 -32 38 -59 20 -27 53
-70 72 -97 46 -63 46 -63 76 -96 39 -45 56 -75 49 -87 -3 -6 -11 -7 -17 -4 -7
4 -8 2 -4 -5 6 -9 11 -9 23 1 12 10 18 9 29 -7 18 -25 72 -91 99 -120 124
-139 190 -209 306 -324 123 -123 174 -171 350 -327 13 -11 39 -31 57 -44 18
-14 30 -30 27 -38 -2 -7 -1 -10 4 -7 9 5 64 -27 94 -56 8 -8 27 -23 43 -34 15
-11 44 -33 64 -50 21 -16 48 -37 60 -45 12 -8 32 -22 44 -31 44 -33 126 -89
130 -89 3 0 20 -14 38 -30 18 -17 43 -33 56 -36 12 -4 22 -10 22 -15 0 -5 5
-9 10 -9 6 0 32 -15 58 -32 70 -48 84 -57 112 -70 14 -7 27 -15 30 -19 3 -3
17 -12 31 -20 15 -8 50 -27 80 -43 30 -16 72 -40 94 -55 51 -32 133 -71 151
-71 8 0 14 -3 14 -8 0 -4 15 -15 33 -24 17 -9 56 -28 84 -42 29 -14 59 -26 68
-26 8 0 15 -4 15 -10 0 -5 5 -10 11 -10 5 0 31 -10 57 -21 26 -12 66 -30 89
-40 23 -11 45 -19 49 -19 4 0 30 -11 59 -24 60 -29 124 -53 180 -68 22 -6 42
-14 45 -17 8 -10 102 -42 155 -53 28 -6 52 -14 55 -18 5 -6 35 -16 133 -41 23
-6 56 -17 74 -25 17 -8 43 -14 57 -14 15 0 52 -9 83 -20 32 -11 70 -20 85 -20
15 0 28 -4 28 -9 0 -5 30 -13 68 -16 37 -4 72 -11 77 -15 6 -4 48 -13 95 -20
47 -6 95 -16 107 -20 12 -5 50 -12 85 -15 35 -4 92 -12 128 -19 36 -8 85 -14
110 -15 25 -1 79 -6 120 -11 172 -21 495 -32 790 -26 305 7 395 12 610 40 196
26 477 73 505 86 11 4 47 11 80 15 32 3 62 9 65 13 5 7 34 15 175 46 61 13
153 41 190 56 11 5 37 11 58 15 20 3 37 10 37 14 0 5 21 12 48 16 26 3 56 13
68 20 12 7 37 17 58 20 20 4 36 11 36 16 0 5 9 9 21 9 24 0 141 45 222 86 16
8 33 14 39 14 10 0 27 7 130 54 31 14 62 26 67 26 6 0 11 5 11 10 0 6 7 10 15
10 13 0 79 29 140 63 11 6 52 26 90 44 39 19 77 38 85 43 8 6 26 16 40 22 14
7 31 18 38 25 7 7 20 13 28 13 8 0 14 5 14 12 0 6 3 8 7 5 3 -4 21 4 39 18 18
14 36 25 41 25 5 0 31 15 58 33 28 18 79 50 115 72 36 21 71 45 78 52 7 7 19
13 25 13 7 0 27 14 45 30 18 17 36 30 40 30 4 0 41 25 82 55 41 30 86 63 99
72 14 10 42 33 64 50 21 18 42 33 46 33 3 0 20 12 36 27 44 42 95 74 106 68 5
-3 6 0 4 7 -3 8 9 24 27 38 32 23 41 30 103 85 184 163 381 356 512 501 114
126 116 129 153 175 42 52 105 128 124 149 25 29 136 181 210 287 39 56 56 72
56 51 0 -7 11 -1 25 14 14 15 25 33 25 40 0 7 -8 1 -17 -12 -9 -14 -18 -27
-19 -29 -1 -1 -7 0 -13 4 -7 4 -2 16 14 33 13 14 29 39 36 54 6 15 15 28 20
28 5 0 9 4 9 9 0 5 23 44 51 86 28 42 61 96 74 120 12 24 33 58 45 74 12 17
18 31 13 31 -4 0 -3 4 2 8 6 4 21 27 34 52 13 25 29 52 35 60 7 8 23 40 36 70
30 68 29 67 39 52 4 -6 7 4 7 24 0 19 5 38 11 42 6 4 14 18 18 32 12 41 25 52
43 38 11 -9 14 -9 9 -1 -4 6 -3 14 2 18 5 3 21 31 36 63 14 31 30 65 35 74 5
9 6 19 2 22 -4 2 -23 -30 -41 -72 -40 -90 -56 -112 -46 -62 4 19 11 37 16 38
5 2 9 8 9 14 0 6 9 30 20 54 11 24 29 64 40 88 11 24 20 48 20 53 0 6 10 30
23 54 24 45 49 112 70 184 6 22 15 42 18 45 4 3 10 21 14 40 4 19 13 44 21 55
7 11 16 38 20 60 3 22 10 45 14 50 5 6 11 28 16 49 4 22 13 51 20 65 8 14 14
33 14 42 0 9 6 32 14 50 8 19 17 58 21 86 4 29 11 55 15 58 5 3 12 30 15 60 4
30 11 55 15 55 4 0 12 30 18 67 25 158 45 259 52 273 4 9 10 40 14 70 6 52 25
193 47 344 47 332 36 1077 -22 1481 -5 39 -14 106 -18 149 -5 44 -14 89 -19
100 -5 12 -17 66 -26 121 -33 201 -39 230 -45 235 -7 5 -18 51 -46 184 -9 38
-19 74 -24 80 -5 6 -12 30 -16 54 -4 23 -11 42 -16 42 -5 0 -9 12 -9 26 0 14
-6 40 -14 57 -8 18 -20 56 -26 85 -7 28 -16 54 -20 57 -5 3 -11 23 -15 45 -4
22 -10 40 -15 40 -4 0 -11 16 -14 35 -4 19 -13 47 -21 62 -8 15 -15 33 -15 40
0 11 -23 62 -51 115 -5 10 -9 23 -9 28 0 6 -12 37 -26 68 -47 104 -54 120 -54
131 0 6 -4 11 -10 11 -5 0 -10 6 -10 13 0 15 -112 241 -122 245 -5 2 -8 11 -8
20 -1 10 -16 44 -35 77 -19 33 -38 67 -42 75 -3 8 -9 17 -12 20 -4 3 -12 16
-19 30 -29 55 -45 85 -51 90 -3 3 -13 17 -21 32 -28 51 -103 173 -110 178 -3
3 -18 26 -33 53 -15 26 -31 47 -35 47 -4 0 -16 17 -27 37 -11 20 -45 69 -75
109 -30 40 -81 108 -112 151 -31 43 -69 91 -83 107 -14 17 -23 36 -21 42 3 7
0 11 -7 8 -7 -2 -24 10 -37 28 -24 35 -35 48 -70 86 -12 13 -51 58 -89 100
-37 42 -137 147 -222 232 -138 138 -204 200 -318 296 -19 16 -41 37 -50 47 -8
9 -19 17 -23 17 -14 0 -58 51 -53 61 3 5 -1 6 -9 3 -8 -3 -23 4 -33 15 -9 12
-22 21 -28 21 -6 0 -18 8 -27 18 -34 34 -55 52 -62 52 -4 0 -24 13 -44 30 -64
51 -171 130 -177 130 -10 0 -69 44 -78 58 -4 6 -12 12 -18 12 -5 0 -15 5 -22
10 -30 26 -133 90 -144 90 -6 0 -13 3 -15 8 -5 11 -83 62 -96 62 -7 0 -12 4
-12 9 0 5 -12 14 -27 20 -38 16 -87 44 -91 54 -2 4 -9 7 -16 7 -8 0 -25 9 -39
20 -14 11 -32 20 -40 20 -8 0 -17 7 -21 15 -3 8 -11 15 -18 15 -7 0 -30 9 -51
20 -20 11 -44 20 -52 20 -8 0 -15 3 -15 8 0 4 -15 15 -32 24 -18 9 -57 28 -85
42 -29 14 -59 26 -68 26 -8 0 -15 5 -15 10 0 6 -5 10 -11 10 -7 0 -33 10 -58
21 -111 51 -129 59 -138 59 -6 0 -34 13 -64 29 -30 15 -71 31 -91 35 -20 4
-50 13 -65 21 -15 8 -35 15 -45 15 -9 0 -18 3 -20 8 -3 7 -80 33 -213 72 -38
12 -83 26 -100 31 -35 13 -73 24 -135 40 -25 6 -74 20 -109 30 -35 11 -77 19
-92 19 -15 0 -29 4 -31 10 -1 5 -32 13 -68 16 -36 4 -69 10 -75 14 -5 4 -48
13 -95 20 -47 6 -93 16 -102 20 -9 5 -58 12 -110 16 -51 4 -97 10 -103 14 -5
4 -44 10 -85 14 -41 4 -100 11 -130 16 -30 5 -77 12 -105 14 -105 10 -799 14
-984 6z m719 -1459 c3 -1 60 -3 128 -5 94 -3 128 -8 149 -21 19 -13 38 -16 75
-12 33 4 47 3 42 -5 -4 -7 4 -8 25 -3 39 8 119 -4 100 -15 -7 -5 6 -6 31 -3
33 5 41 3 35 -7 -5 -9 -2 -10 14 -5 29 9 138 -14 120 -26 -8 -5 -9 -9 -4 -9 6
0 21 -3 35 -5 22 -5 22 -4 5 4 -19 9 -19 10 3 10 12 1 22 -5 22 -13 0 -14 13
-17 89 -17 30 -1 40 -4 30 -10 -8 -5 -11 -9 -7 -9 3 0 14 -3 24 -7 12 -4 15
-3 10 6 -6 9 0 10 21 5 65 -16 78 -22 76 -32 -3 -14 41 -26 63 -18 23 9 64 -4
64 -20 0 -8 5 -14 11 -14 5 0 7 5 4 10 -3 6 -1 10 4 10 6 0 11 -6 11 -14 0 -8
19 -20 44 -27 25 -7 43 -16 40 -20 -5 -9 55 -33 63 -25 3 3 12 1 20 -5 10 -9
17 -8 28 1 13 11 32 7 110 -24 52 -21 95 -42 95 -48 0 -5 -4 -7 -9 -4 -5 3
-11 0 -14 -8 -4 -9 4 -13 25 -14 17 0 36 -6 42 -13 8 -9 7 -10 -4 -4 -13 8
-13 7 -1 -9 9 -11 24 -16 38 -13 12 2 20 0 17 -4 -3 -5 2 -9 10 -9 9 0 16 -4
16 -9 0 -5 11 -11 25 -13 14 -3 25 -1 25 5 0 6 10 1 23 -11 13 -12 27 -19 31
-15 4 5 6 1 4 -7 -2 -9 4 -15 17 -15 11 0 26 -8 33 -17 7 -10 21 -18 31 -18
10 0 24 -7 31 -15 7 -9 19 -14 27 -11 8 3 11 1 8 -4 -3 -6 1 -10 10 -10 10 0
13 -5 9 -12 -4 -7 -4 -10 1 -6 4 4 20 -1 34 -11 40 -27 64 -34 58 -16 -4 8 -3
16 1 19 4 3 9 -5 9 -16 1 -12 9 -28 17 -37 13 -12 18 -13 28 -2 11 10 9 15 -6
27 -11 8 -17 14 -13 14 13 0 133 -80 120 -80 -6 0 -15 5 -18 10 -9 15 -22 12
-29 -6 -3 -8 -2 -12 4 -9 5 3 14 -4 20 -16 7 -11 14 -18 17 -15 5 5 24 -8 81
-55 8 -7 12 -6 12 3 1 7 14 -3 30 -22 17 -19 30 -30 30 -25 0 5 7 0 15 -12 8
-12 25 -23 38 -25 12 -2 21 -9 19 -16 -1 -6 3 -11 10 -10 7 2 17 -6 22 -18 5
-11 23 -27 40 -34 17 -7 41 -25 55 -39 13 -14 20 -19 16 -11 -8 13 -6 13 8 2
9 -8 15 -19 14 -24 -1 -6 4 -13 11 -15 24 -9 13 45 -15 66 -14 12 -24 23 -21
26 2 3 40 -24 84 -59 92 -75 192 -166 152 -139 -15 10 -28 22 -28 26 0 5 -4 5
-10 2 -5 -3 -10 -1 -10 4 0 6 -5 11 -11 11 -5 0 -7 -4 -4 -10 3 -5 1 -10 -4
-10 -6 0 -11 -4 -11 -10 0 -5 7 -7 15 -4 11 4 15 0 15 -16 0 -15 4 -20 15 -16
14 5 65 -49 65 -70 0 -6 17 -27 39 -48 28 -27 41 -34 46 -25 5 7 4 10 -3 5 -6
-3 -14 -1 -17 5 -5 7 0 10 11 7 11 -2 18 -10 17 -19 -2 -8 6 -20 17 -27 11 -7
20 -8 20 -3 0 6 -5 13 -10 16 -8 5 -7 11 1 21 10 13 6 18 -13 15 -5 0 -7 5 -5
12 1 6 -5 11 -13 9 -8 -2 -12 0 -7 4 4 4 -7 24 -25 43 -18 19 11 -5 65 -53 97
-89 257 -257 257 -271 0 -4 -10 5 -21 19 -15 20 -24 24 -29 16 -5 -9 -10 -6
-15 9 -4 14 -12 20 -21 17 -7 -3 -18 3 -23 12 -6 9 -11 13 -11 7 -1 -5 -3 -18
-5 -27 -2 -11 3 -15 15 -13 10 2 17 -2 17 -8 -1 -40 4 -49 22 -44 13 3 18 0
15 -8 -3 -6 2 -18 11 -25 8 -7 15 -9 15 -5 0 4 11 -9 25 -29 14 -20 25 -41 25
-45 0 -14 29 -22 56 -15 20 5 22 9 13 28 -16 33 77 -71 132 -149 43 -60 45
-64 12 -28 -35 39 -39 41 -51 25 -7 -9 -10 -12 -7 -6 2 7 -1 17 -8 23 -10 8
-19 7 -33 -5 -18 -14 -18 -14 5 -3 22 10 23 10 17 -14 -6 -26 5 -30 32 -14 7
5 12 4 12 -2 0 -6 -4 -11 -10 -11 -5 0 -10 -7 -10 -16 0 -8 4 -13 9 -9 5 3 12
1 16 -5 3 -5 1 -10 -6 -10 -7 0 -2 -11 11 -25 13 -14 31 -25 40 -25 9 0 22 -6
29 -12 11 -10 13 -10 7 0 -4 6 -2 12 5 12 7 0 6 8 -5 25 -27 42 -9 28 29 -21
42 -56 43 -63 10 -56 -14 2 -22 8 -19 13 3 5 3 9 0 9 -3 0 -10 -10 -17 -21 -8
-16 -8 -20 1 -14 7 4 10 1 8 -11 -2 -11 2 -18 8 -17 7 1 10 -6 7 -17 -3 -11 0
-20 6 -20 6 0 10 5 8 11 -1 6 5 13 13 14 12 2 15 -6 13 -34 -2 -30 -1 -32 5
-11 l8 25 7 -27 c5 -18 12 -25 21 -22 16 6 15 18 -3 54 l-12 25 19 -24 c28
-35 57 -85 44 -78 -24 15 -18 -22 8 -50 16 -17 27 -33 24 -35 -2 -3 3 -11 12
-19 16 -13 17 -12 12 9 -9 33 -3 28 31 -28 19 -30 28 -56 24 -66 -4 -11 -3
-15 5 -10 6 3 14 2 17 -4 4 -6 3 -9 -2 -8 -4 2 -8 -2 -8 -7 0 -6 5 -9 11 -9 7
1 11 -6 9 -15 -1 -9 7 -29 19 -46 11 -16 20 -31 19 -32 -4 -4 21 -57 41 -85
10 -15 23 -25 29 -21 6 4 7 1 2 -6 -8 -14 71 -181 87 -181 5 0 6 -4 3 -10 -3
-5 9 -43 28 -83 19 -41 38 -83 41 -95 4 -12 12 -22 18 -22 5 0 8 -6 6 -12 -3
-7 1 -19 9 -26 8 -8 11 -23 7 -38 -4 -14 -2 -24 4 -24 6 0 13 -18 17 -41 4
-22 13 -43 21 -46 8 -3 13 -10 12 -17 -4 -21 14 -89 30 -113 8 -14 16 -37 17
-52 1 -15 4 -31 7 -36 3 -6 9 -23 13 -40 5 -16 9 -32 10 -35 1 -3 5 -20 9 -37
4 -18 11 -33 14 -33 4 0 8 -26 9 -58 2 -39 8 -61 19 -69 9 -6 13 -17 9 -23 -4
-6 -2 -17 4 -24 6 -7 9 -21 5 -30 -4 -9 -1 -16 6 -16 10 0 10 -3 1 -14 -10
-11 -9 -24 2 -58 8 -24 17 -65 20 -91 4 -27 10 -54 15 -60 9 -11 12 -32 13
-84 1 -66 13 -152 20 -147 5 3 9 -12 9 -33 0 -28 -3 -34 -10 -23 -5 8 -10 10
-10 4 0 -6 3 -14 8 -18 4 -4 7 -11 8 -14 0 -4 4 -15 8 -24 5 -10 6 -43 4 -73
-2 -30 -2 -55 1 -55 3 0 7 -121 7 -270 1 -171 -2 -267 -8 -264 -6 4 -7 -1 -1
-12 5 -11 4 -65 -2 -134 -6 -63 -14 -106 -17 -95 -4 14 -6 10 -7 -15 -4 -88
-9 -141 -14 -147 -3 -3 -3 -18 0 -34 3 -16 0 -35 -6 -43 -6 -7 -9 -21 -5 -30
3 -9 1 -16 -6 -16 -6 0 -10 -8 -9 -17 3 -22 -9 -72 -22 -96 -7 -13 -6 -23 2
-34 10 -12 10 -16 0 -22 -7 -5 -13 -27 -14 -50 -1 -23 -8 -45 -15 -50 -8 -5
-14 -30 -15 -65 -1 -31 -5 -56 -9 -56 -4 0 -7 -3 -7 -7 1 -5 0 -11 -1 -15 -1
-5 -3 -11 -4 -15 -9 -36 -31 -100 -36 -108 -4 -5 -11 -28 -15 -50 -4 -22 -10
-44 -14 -50 -11 -14 -31 -97 -25 -106 2 -4 -3 -9 -11 -13 -8 -3 -15 -16 -15
-28 0 -13 -6 -33 -14 -44 -8 -11 -17 -38 -21 -60 -11 -62 -16 -75 -27 -68 -7
5 -9 0 -6 -14 4 -12 2 -22 -3 -22 -5 0 -9 -7 -9 -15 0 -8 -4 -15 -10 -15 -5 0
-10 -8 -10 -18 0 -10 -7 -27 -15 -39 -8 -12 -16 -33 -17 -47 -1 -14 -5 -26 -9
-26 -4 0 -14 -19 -24 -42 -9 -24 -21 -46 -27 -49 -5 -4 -11 -18 -11 -33 -1
-14 -8 -26 -15 -26 -8 0 -12 -8 -10 -17 2 -10 -4 -25 -12 -34 -15 -15 -52 -79
-52 -89 0 -3 -9 -17 -20 -32 -10 -15 -20 -37 -21 -48 -1 -11 -5 -20 -10 -20
-4 0 -5 -5 -2 -10 3 -6 -1 -13 -9 -16 -9 -3 -14 -10 -11 -14 7 -12 -35 -81
-45 -75 -5 3 -12 0 -16 -6 -4 -8 -3 -9 4 -5 23 14 11 -12 -18 -41 -17 -16 -32
-39 -35 -51 -5 -29 -36 -73 -46 -66 -5 3 -6 -1 -3 -9 3 -8 -6 -21 -20 -31 -27
-17 -60 -66 -34 -50 9 6 8 1 -3 -16 -9 -14 -19 -23 -21 -20 -7 7 -38 -20 -38
-33 0 -6 7 -2 15 9 8 10 15 15 15 11 0 -13 -36 -57 -42 -51 -3 2 -11 -3 -19
-13 -12 -15 -12 -16 1 -9 8 4 4 -2 -10 -14 -14 -12 -18 -18 -10 -14 13 7 13 5
1 -9 -7 -9 -17 -15 -21 -12 -4 2 -16 -5 -26 -18 -10 -12 -12 -16 -4 -9 30 26
30 10 0 -28 -17 -22 -36 -38 -41 -34 -8 4 -13 -8 -11 -27 1 -4 -9 -15 -21 -25
-21 -19 -21 -19 -7 1 15 20 15 20 -8 1 -12 -11 -21 -25 -18 -32 3 -8 0 -11 -8
-8 -14 5 -92 -83 -82 -93 11 -11 -35 -52 -52 -46 -12 5 -14 2 -9 -11 5 -13 1
-19 -14 -23 -11 -3 -18 -11 -15 -18 5 -15 -117 -138 -128 -128 -4 4 -6 1 -4
-7 2 -9 -4 -15 -17 -15 -11 0 -21 -8 -23 -17 -2 -11 -9 -15 -19 -11 -13 5 -15
2 -9 -12 4 -11 4 -16 0 -13 -12 12 -46 -12 -40 -28 3 -8 2 -13 -3 -10 -5 3
-28 -11 -52 -32 -59 -50 -110 -100 -84 -82 12 8 6 0 -13 -17 -19 -18 -39 -30
-44 -27 -5 3 -7 0 -6 -8 2 -7 -5 -12 -14 -12 -10 1 -16 -3 -15 -9 1 -6 -15
-19 -35 -29 -21 -10 -38 -21 -38 -24 0 -3 5 -2 12 2 7 4 8 3 4 -4 -4 -7 -15
-12 -24 -12 -21 -1 -52 -23 -52 -38 0 -6 -5 -14 -12 -18 -7 -5 -9 -2 -3 7 4 8
-3 2 -16 -12 -31 -33 -66 -60 -55 -40 13 21 -44 -19 -88 -62 -29 -29 -41 -35
-47 -25 -7 10 -9 10 -9 -3 0 -9 -6 -16 -13 -16 -17 0 -67 -33 -67 -44 0 -5 -7
-9 -15 -9 -8 0 -15 -5 -15 -12 0 -6 -3 -8 -7 -5 -3 4 -12 -1 -20 -11 -10 -11
-12 -12 -8 -2 4 9 1 8 -8 -3 -9 -10 -17 -18 -19 -17 -8 3 -58 -20 -58 -28 0
-4 -10 -8 -22 -9 -11 -1 -24 -6 -27 -12 -4 -5 -18 -15 -31 -21 -60 -26 -129
-67 -124 -73 3 -3 -3 -3 -15 0 -14 3 -21 1 -21 -9 0 -7 -10 -14 -22 -15 -11
-1 -25 -8 -29 -15 -5 -7 -16 -14 -26 -14 -26 -2 -73 -22 -73 -31 0 -5 -12 -9
-27 -10 -15 0 -32 -8 -37 -15 -6 -8 -17 -13 -25 -10 -8 2 -11 0 -8 -5 9 -14
-39 -34 -60 -26 -11 5 -14 3 -8 -6 6 -10 2 -11 -15 -6 -14 4 -20 3 -16 -3 8
-13 -49 -36 -65 -26 -7 4 -10 3 -6 -3 4 -6 -2 -13 -13 -16 -12 -3 -18 -1 -14
5 4 6 1 8 -7 6 -8 -3 -13 -11 -11 -17 1 -7 -3 -11 -10 -10 -31 4 -58 -2 -72
-16 -8 -9 -22 -12 -32 -8 -11 4 -15 3 -11 -4 4 -6 1 -11 -6 -10 -53 2 -77 -4
-77 -19 0 -11 -6 -15 -20 -11 -11 3 -18 2 -15 -3 7 -12 -30 -19 -49 -8 -12 7
-16 5 -16 -8 0 -11 -6 -15 -20 -11 -11 3 -20 1 -20 -5 0 -5 -4 -7 -9 -3 -5 3
-12 1 -16 -5 -3 -5 -12 -10 -18 -10 -7 0 -6 4 3 10 9 6 10 10 3 10 -6 0 -18
-7 -27 -15 -8 -9 -22 -12 -32 -8 -10 4 -15 2 -11 -3 3 -6 -17 -10 -50 -11 -38
-1 -58 -6 -67 -18 -8 -11 -21 -15 -39 -11 -18 3 -25 1 -21 -6 5 -8 -3 -9 -27
-5 -24 5 -30 4 -19 -3 13 -9 13 -10 0 -10 -9 0 -22 6 -29 12 -12 11 -13 10 -7
-6 5 -16 2 -18 -24 -14 -16 3 -30 0 -30 -5 0 -5 -16 -7 -35 -5 -19 2 -35 0
-35 -5 0 -5 -9 -7 -20 -4 -11 3 -20 1 -20 -5 0 -6 -17 -8 -39 -6 -22 2 -37 0
-34 -5 3 -5 -19 -6 -50 -2 -43 6 -60 3 -80 -10 -20 -13 -53 -17 -146 -18 -67
-1 -121 -6 -121 -10 0 -4 -59 -6 -130 -4 -72 2 -133 0 -136 -4 -2 -4 -19 -6
-37 -4 -17 3 -80 5 -140 6 -59 0 -105 4 -103 7 2 4 -34 6 -80 4 -51 -2 -84 0
-84 6 0 6 6 13 13 15 7 3 5 6 -5 6 -10 1 -18 -3 -18 -9 0 -14 -74 -12 -89 3
-7 7 -38 12 -76 12 -34 0 -61 3 -59 6 2 4 -17 4 -43 1 -35 -4 -44 -2 -38 8 5
9 2 10 -13 6 -11 -4 -23 -2 -27 4 -4 7 -19 9 -35 5 -16 -3 -31 -2 -35 4 -3 6
-17 8 -30 5 -16 -4 -26 0 -33 12 -9 16 -12 16 -28 4 -11 -9 -15 -10 -10 -2 7
12 -21 18 -68 13 -10 0 -24 6 -30 15 -8 11 -30 16 -69 17 -31 1 -57 4 -57 7 0
3 -8 6 -17 7 -10 1 -25 3 -33 6 -8 2 -32 7 -52 11 -20 5 -39 15 -42 23 -4 10
-14 13 -27 10 -20 -5 -68 10 -79 25 -3 3 -28 9 -55 12 -28 3 -54 12 -60 19 -5
7 -17 12 -25 12 -8 -1 -19 2 -25 6 -11 7 -85 33 -98 34 -4 0 -11 6 -15 12 -5
7 -21 14 -38 16 -16 2 -40 11 -54 19 -14 9 -37 20 -52 23 -16 4 -28 11 -28 16
0 5 -8 9 -17 9 -21 0 -187 79 -191 92 -2 4 -8 8 -14 8 -11 0 -119 51 -128 60
-3 3 -27 17 -55 31 -88 46 -119 64 -133 77 -7 7 -18 10 -23 7 -5 -4 -9 -2 -9
3 0 11 -78 62 -96 62 -8 0 -14 4 -14 8 0 9 -157 116 -162 110 -2 -1 -23 16
-47 40 -24 23 -47 42 -51 42 -4 0 -22 13 -41 29 -18 16 -37 28 -40 25 -4 -2
-10 5 -14 16 -4 11 -11 18 -16 15 -5 -4 -9 -1 -9 6 0 7 -2 10 -5 7 -3 -3 -18
6 -33 21 -16 14 -54 49 -86 76 -32 28 -86 76 -119 107 -34 31 -65 54 -71 51
-5 -3 -6 -1 -2 5 4 7 2 12 -4 12 -6 0 -8 5 -4 12 5 7 3 8 -5 3 -11 -6 -74 46
-77 64 -3 22 -19 41 -35 41 -10 0 -18 4 -17 9 3 10 -59 83 -154 181 -38 38
-68 72 -68 75 0 8 -39 62 -66 92 -12 12 -34 42 -50 65 -16 23 -38 52 -50 65
-21 23 -173 248 -214 318 -13 22 -27 42 -30 45 -3 3 -11 16 -17 30 -7 14 -30
57 -52 95 -58 101 -191 371 -191 387 0 8 -4 18 -9 24 -5 5 -19 34 -32 64 -13
30 -29 61 -36 68 -7 8 -11 17 -8 22 3 5 1 11 -5 15 -5 3 -10 19 -10 35 0 16
-4 31 -9 34 -5 4 -12 24 -16 46 -4 22 -10 40 -14 40 -6 0 -13 22 -36 110 -1 3
-4 12 -7 20 -4 8 -9 24 -14 35 -4 11 -6 26 -5 34 1 8 -1 17 -6 20 -5 3 -14 26
-21 51 -7 25 -14 52 -17 60 -2 8 -9 42 -15 75 -6 33 -16 69 -22 79 -6 11 -13
46 -16 78 -2 32 -9 61 -13 64 -5 3 -9 18 -9 34 0 16 -4 31 -8 34 -5 3 -8 19
-7 36 1 16 -1 30 -5 30 -4 0 -7 6 -8 13 0 6 -3 41 -6 77 -3 36 -8 88 -12 115
-4 28 -7 58 -5 68 1 9 -3 17 -8 17 -6 0 -11 9 -11 21 0 11 5 17 10 14 17 -10
11 32 -6 46 -12 10 -15 29 -14 78 1 36 1 71 0 76 -5 21 -5 525 0 525 3 0 4 32
2 71 -3 54 0 74 12 88 11 13 17 39 17 87 2 138 4 164 11 164 4 0 5 14 3 32 -2
18 0 35 6 39 6 3 11 29 12 57 1 29 5 52 10 52 4 0 7 13 7 29 0 17 5 33 10 36
6 3 10 15 10 26 0 14 -4 18 -12 13 -9 -6 -9 -3 0 9 8 9 11 21 7 27 -3 5 -1 10
5 10 6 0 8 10 4 25 -4 18 -1 27 10 31 8 3 15 16 15 27 0 12 6 48 14 79 8 32
13 59 10 61 -2 2 3 17 12 33 8 16 15 37 15 46 0 9 5 20 10 23 6 4 10 14 9 23
-1 10 1 25 4 35 4 9 10 25 14 35 9 24 9 24 17 57 4 17 13 41 19 55 6 14 12 30
13 35 0 6 4 18 7 28 4 9 10 25 14 35 8 23 14 45 15 60 1 6 4 12 8 12 3 0 12
17 19 38 8 20 34 79 57 130 24 52 44 96 44 99 0 8 54 118 61 123 3 3 10 16 14
29 4 14 21 46 36 72 16 25 29 49 29 52 0 10 73 132 83 138 6 4 7 14 4 24 -4 9
-3 14 2 11 9 -6 44 39 47 61 1 6 18 33 38 59 20 26 36 50 36 55 0 4 13 22 30
40 16 18 27 36 25 39 -3 4 6 19 20 34 13 14 21 26 17 26 -3 0 4 7 16 16 12 8
22 21 22 29 0 7 3 15 8 17 10 4 92 105 92 113 0 3 -4 3 -10 0 -6 -3 -10 -4
-10 0 0 3 11 10 25 15 14 5 25 14 25 20 0 6 -4 8 -10 5 -16 -10 -11 1 7 16 14
12 16 12 9 0 -6 -9 -5 -12 5 -9 8 3 13 11 11 17 -1 6 15 28 35 49 32 32 91 96
183 200 11 12 20 27 20 32 0 6 7 10 15 10 8 0 15 7 15 15 0 8 5 15 10 15 6 0
9 5 8 12 -2 6 10 18 25 26 16 7 31 20 34 28 3 8 9 11 14 8 5 -3 9 2 9 10 0 9
7 16 15 16 8 0 15 5 15 10 0 6 5 10 11 10 7 0 45 33 86 73 40 39 87 80 104 89
39 21 79 58 79 72 0 6 -5 4 -10 -4 -5 -8 -10 -10 -10 -4 0 7 15 23 34 37 24
19 36 23 44 15 8 -8 21 -2 46 25 19 20 39 37 45 37 5 0 18 10 28 23 22 26 78
67 92 67 5 0 16 8 23 18 14 18 57 49 98 69 37 19 59 34 104 75 23 21 47 38 55
38 8 0 45 18 83 40 39 22 74 40 78 40 5 0 15 6 22 13 16 15 101 57 117 57 6 0
11 3 11 8 0 4 34 23 75 42 41 19 75 38 75 43 0 4 3 6 8 3 4 -2 25 4 47 14 22
11 45 19 50 20 6 0 22 8 35 17 14 10 33 19 43 20 10 2 28 8 40 15 21 12 35 16
67 22 8 1 29 8 45 15 72 31 92 39 125 47 45 10 41 9 73 22 16 7 35 12 43 12 8
0 22 4 32 10 20 11 110 35 197 52 33 7 63 16 67 22 3 5 19 11 35 13 57 5 68 8
75 18 5 6 8 5 8 -3 0 -9 5 -10 18 -4 9 6 42 13 72 18 58 8 68 10 73 14 16 13
189 30 295 29 34 0 52 4 48 10 -4 6 2 8 14 6 11 -2 20 0 20 6 0 5 31 8 70 7
38 -1 72 0 74 3 4 3 523 4 536 0z"/>
<path d="M8514 8294 c-236 -234 -437 -430 -447 -435 -10 -6 -15 -14 -12 -18 6
-10 -19 -33 -28 -26 -4 3 -5 2 -3 -1 6 -8 -63 -77 -92 -93 -12 -7 -20 -16 -17
-22 4 -5 1 -9 -5 -9 -5 0 -117 -107 -248 -237 -130 -131 -241 -236 -247 -234
-5 1 -7 0 -3 -4 9 -9 -61 -85 -79 -85 -8 0 -12 -3 -10 -7 3 -8 -39 -53 -45
-48 -2 1 -12 -7 -23 -18 -12 -11 -14 -17 -5 -13 8 4 6 1 -5 -8 -11 -8 -25 -20
-31 -25 -7 -5 -15 -7 -18 -4 -3 4 -6 0 -6 -7 0 -16 -104 -120 -121 -120 -7 0
-10 -3 -7 -6 8 -7 -122 -140 -133 -136 -5 1 -9 -5 -9 -13 0 -8 -7 -15 -15 -15
-8 0 -15 -6 -15 -13 0 -17 -42 -57 -59 -57 -7 0 -10 -4 -7 -9 7 -11 -18 -33
-27 -24 -4 3 -7 2 -7 -4 0 -15 -44 -63 -58 -63 -7 0 -10 -4 -7 -10 3 -5 0 -10
-7 -10 -15 0 -98 -84 -98 -100 0 -5 -5 -10 -11 -10 -5 0 -67 -56 -137 -125
-70 -68 -197 -192 -282 -276 -314 -306 -606 -599 -601 -604 2 -3 0 -5 -6 -5
-14 0 -69 -52 -66 -62 2 -4 0 -7 -5 -6 -10 4 -46 -23 -57 -42 -4 -8 5 -4 20
10 l29 25 -25 -32 c-21 -28 -25 -29 -36 -15 -7 10 -17 22 -23 29 -5 7 -10 17
-10 23 0 5 -4 9 -9 7 -11 -3 -101 89 -101 103 0 5 -7 10 -15 10 -8 0 -14 5
-12 12 1 7 -3 12 -9 13 -6 0 -23 14 -38 32 -15 18 -63 68 -106 111 -44 44 -76
83 -72 87 4 5 2 5 -4 2 -11 -6 -31 9 -33 26 -1 4 -3 7 -6 7 -8 -1 -63 54 -61
60 0 3 -3 6 -7 7 -5 1 -22 19 -38 39 -16 20 -73 79 -126 131 -54 52 -97 99
-96 104 2 5 -2 9 -9 9 -11 0 -123 108 -126 123 -1 4 -2 12 -2 19 0 6 -3 9 -6
6 -3 -4 -19 8 -35 25 -325 344 -626 647 -645 647 -19 0 -57 -36 -396 -372
-137 -137 -254 -248 -258 -248 -5 0 -12 -5 -16 -12 -5 -7 -3 -8 7 -3 8 5 5 -1
-5 -13 -11 -12 -22 -22 -27 -22 -4 0 -73 -65 -155 -145 -81 -80 -150 -145
-152 -145 -6 0 -62 -58 -62 -64 0 -3 23 -27 51 -53 29 -26 91 -91 140 -145 48
-53 90 -93 93 -90 3 3 6 1 6 -5 0 -13 99 -113 112 -113 5 0 6 -4 3 -10 -3 -5
1 -10 9 -10 9 0 16 -4 16 -10 0 -5 45 -54 100 -108 55 -54 100 -103 100 -108
1 -5 19 -21 41 -37 24 -16 37 -32 33 -39 -5 -7 -3 -8 5 -4 8 5 14 0 18 -13 3
-11 9 -18 14 -15 5 3 9 -2 9 -11 0 -8 8 -19 17 -22 20 -8 49 -33 37 -33 -3 0
-1 -7 6 -15 7 -8 16 -12 21 -9 5 3 9 0 9 -6 0 -6 62 -73 138 -149 75 -76 171
-175 212 -220 76 -83 106 -115 549 -569 135 -138 249 -258 253 -267 5 -8 13
-13 19 -10 5 4 9 -1 9 -9 0 -8 5 -18 12 -22 7 -5 8 -3 3 6 -5 9 -4 11 3 6 7
-4 12 -14 12 -22 0 -8 16 -24 35 -35 19 -12 35 -25 35 -31 0 -5 62 -71 138
-147 169 -169 242 -248 242 -261 0 -6 4 -10 10 -10 11 0 90 -80 90 -92 0 -4
11 -10 25 -14 20 -5 33 2 65 32 22 22 176 174 344 339 625 616 1132 1114 1158
1138 15 13 25 27 21 30 -3 4 -1 7 5 7 6 0 190 178 409 396 507 505 671 664
684 664 6 0 7 5 4 11 -4 6 2 13 14 16 12 3 21 11 21 18 0 8 8 16 18 20 9 3 44
37 76 75 33 38 64 66 70 63 6 -3 8 -3 4 2 -4 4 11 22 32 40 21 18 36 35 33 39
-4 3 -2 6 4 6 12 0 261 243 982 956 273 270 514 506 536 525 51 44 90 89 90
106 0 20 -1013 1053 -1033 1053 -5 0 -202 -192 -438 -426z"/>
</g>
</svg>
