<?xml version="1.0" standalone="no"?>
<!DOCTYPE svg PUBLIC "-//W3C//DTD SVG 20010904//EN"
 "http://www.w3.org/TR/2001/REC-SVG-20010904/DTD/svg10.dtd">
<svg version="1.0" xmlns="http://www.w3.org/2000/svg"
 width="1280.000000pt" height="1280.000000pt" viewBox="0 0 1280.000000 1280.000000"
 preserveAspectRatio="xMidYMid meet">
<metadata>
Created by potrace 1.16, written by Peter Selinger 2001-2019
</metadata>
<g transform="translate(0.000000,1280.000000) scale(0.100000,-0.100000)"
fill="#000000" stroke="none">
<path d="M6250 9661 c-59 -19 -119 -54 -160 -92 -34 -32 -80 -95 -80 -108 0
-6 -4 -11 -9 -11 -5 0 -12 -16 -15 -35 -4 -19 -11 -35 -15 -35 -19 0 -22 -125
-30 -1005 -8 -861 -21 -1305 -40 -1329 -5 -6 -11 -67 -14 -136 -4 -72 -11
-126 -17 -128 -6 -2 -10 -35 -10 -78 0 -41 -4 -74 -9 -74 -11 0 -41 62 -41 83
0 9 -4 18 -9 21 -5 4 -12 25 -16 49 -4 23 -11 47 -15 52 -9 12 -30 142 -30
184 0 16 -4 31 -9 33 -6 2 -13 39 -17 83 -4 44 -10 82 -14 85 -4 3 -12 46 -18
95 -7 50 -18 135 -26 190 -8 55 -15 128 -16 163 0 35 -4 61 -9 58 -9 -6 -21
73 -21 147 0 26 -4 47 -9 47 -4 0 -13 44 -19 98 -6 53 -18 144 -26 202 -8 58
-15 133 -16 168 0 36 -4 61 -9 57 -5 -3 -13 34 -17 85 -3 49 -10 90 -14 90 -4
0 -11 25 -15 55 -3 30 -10 57 -14 59 -4 3 -14 30 -21 61 -7 30 -17 55 -21 55
-4 0 -11 10 -15 22 -8 28 -19 41 -76 97 -76 75 -81 78 -148 91 -57 11 -184 -2
-207 -21 -7 -6 -13 -9 -13 -5 0 7 -51 -37 -86 -73 -49 -52 -87 -164 -85 -256
1 -106 22 -439 30 -480 10 -50 31 -318 31 -387 0 -20 4 -38 9 -40 5 -1 13 -48
17 -103 4 -55 10 -102 14 -105 10 -8 43 -226 56 -375 4 -44 11 -82 15 -85 5
-3 11 -43 15 -88 4 -45 10 -82 14 -82 4 0 11 -33 15 -72 3 -40 10 -77 14 -83
5 -5 14 -58 21 -117 8 -60 17 -108 21 -108 4 0 10 -23 14 -52 4 -29 11 -59 16
-68 4 -8 14 -37 20 -65 32 -137 -8 -268 -77 -251 -26 7 -54 28 -54 41 0 3 -9
27 -21 52 -11 25 -23 61 -26 79 -3 19 -9 34 -14 34 -4 0 -10 14 -14 30 -4 17
-11 30 -16 30 -5 0 -9 7 -9 16 0 8 -9 36 -21 61 -11 25 -23 61 -26 79 -3 19
-9 31 -13 29 -5 -3 -12 9 -15 27 -4 18 -11 38 -15 43 -18 23 -66 151 -62 164
3 8 0 11 -6 7 -7 -4 -14 7 -18 29 -3 19 -10 35 -15 35 -5 0 -9 5 -9 11 0 5
-11 35 -25 65 -14 30 -25 63 -25 74 0 11 -4 20 -10 20 -5 0 -13 12 -16 28 -4
15 -10 29 -13 32 -9 7 -61 125 -61 139 0 6 -4 11 -9 11 -5 0 -12 12 -16 27 -3
15 -10 30 -14 33 -4 3 -27 46 -52 95 -24 50 -49 96 -56 103 -7 7 -13 20 -13
28 0 8 -4 14 -9 14 -5 0 -14 14 -21 30 -7 17 -16 30 -20 30 -4 0 -12 11 -17
23 -10 22 -153 183 -153 172 0 -3 -22 9 -49 25 -26 17 -56 30 -65 30 -9 0 -16
5 -16 10 0 6 -35 10 -85 10 -85 0 -86 0 -125 -37 -22 -20 -40 -42 -40 -50 0
-7 -4 -13 -10 -13 -6 0 -10 -43 -10 -110 0 -60 4 -110 9 -110 5 0 12 -26 16
-57 4 -32 10 -62 15 -68 4 -5 11 -31 14 -57 4 -26 11 -50 15 -53 5 -2 14 -38
22 -79 7 -41 16 -73 20 -71 4 3 10 -15 13 -40 4 -25 11 -45 15 -45 5 0 12 -17
16 -37 4 -21 10 -42 15 -48 4 -5 13 -36 20 -67 7 -32 17 -58 21 -58 4 0 10
-18 14 -40 4 -22 10 -40 15 -40 5 0 11 -18 15 -40 4 -22 11 -42 15 -45 5 -3
14 -30 21 -60 7 -30 16 -55 20 -55 4 0 10 -18 14 -40 4 -22 11 -40 16 -40 5 0
9 -8 9 -17 0 -10 7 -31 15 -46 8 -15 20 -52 27 -82 7 -30 16 -55 20 -55 4 0
10 -16 14 -35 3 -19 10 -35 15 -35 5 0 9 -7 9 -16 0 -8 9 -35 20 -58 11 -24
22 -62 26 -85 4 -22 10 -41 14 -41 5 0 11 -14 15 -31 4 -17 13 -42 21 -57 8
-15 14 -34 14 -42 0 -9 4 -20 9 -25 6 -6 16 -40 23 -77 7 -36 15 -65 19 -62 4
2 11 -21 14 -51 4 -30 11 -55 15 -55 4 0 10 -22 14 -50 4 -27 10 -51 15 -54 4
-3 14 -43 21 -90 7 -47 16 -83 20 -81 4 3 11 -19 14 -47 4 -29 11 -57 15 -63
5 -5 12 -28 16 -50 4 -22 10 -44 13 -50 10 -14 31 -114 31 -147 1 -16 5 -28
11 -28 5 0 12 -22 16 -50 4 -28 10 -50 14 -50 5 0 11 -22 15 -50 4 -27 10 -52
15 -55 4 -2 13 -41 21 -85 7 -44 16 -80 20 -80 4 0 10 -20 13 -45 4 -25 11
-45 17 -45 5 0 9 -7 9 -16 0 -8 11 -40 25 -70 14 -30 25 -61 25 -69 0 -8 4
-15 9 -15 5 0 13 -9 16 -21 7 -21 74 -139 85 -149 3 -3 11 -16 18 -30 19 -39
36 -64 50 -73 6 -4 12 -15 12 -23 0 -8 9 -22 20 -31 11 -10 20 -23 20 -30 0
-7 5 -13 10 -13 6 0 14 -8 17 -17 4 -9 14 -26 22 -36 26 -31 44 -54 76 -94 38
-48 276 -287 330 -331 22 -17 45 -36 52 -42 47 -38 214 -145 284 -181 46 -24
87 -48 90 -52 3 -5 8 -8 10 -6 6 3 77 -21 107 -37 15 -8 35 -14 45 -14 9 0 17
-4 17 -9 0 -5 23 -12 50 -16 28 -4 50 -10 50 -15 0 -4 44 -13 98 -19 53 -6
120 -14 147 -17 66 -8 302 -8 390 0 224 20 304 30 300 37 -3 4 17 10 45 14 27
4 50 10 50 15 0 4 16 11 35 14 19 4 47 13 62 21 15 8 36 15 45 15 9 0 20 5 23
10 4 6 11 8 16 5 5 -4 9 -2 9 4 0 5 14 12 30 16 17 4 30 10 30 13 0 4 27 20
60 36 33 16 60 33 60 38 0 4 5 8 10 8 26 0 222 156 329 261 59 60 168 188 232
274 24 33 47 62 52 63 4 2 7 10 7 18 0 8 7 17 15 20 8 4 15 12 15 20 0 7 8 18
18 23 9 6 14 11 10 11 -8 0 48 96 68 117 7 7 22 34 35 60 13 26 29 54 36 61 7
7 13 20 13 28 0 8 5 14 10 14 6 0 10 6 10 14 0 8 7 21 15 30 9 8 15 18 15 21
-2 10 82 180 92 186 6 3 9 8 8 10 -1 2 3 17 9 32 6 16 11 33 11 38 0 5 5 9 10
9 6 0 10 6 10 13 1 6 9 30 20 52 11 22 19 46 20 53 0 7 4 11 9 8 5 -3 11 8 15
24 3 17 15 50 26 74 11 25 20 52 20 60 0 9 4 16 9 16 5 0 12 20 16 45 3 25 11
43 16 39 5 -3 8 -2 7 3 -3 11 23 116 32 128 4 6 11 26 15 45 4 19 11 40 15 45
4 6 11 29 15 53 4 23 11 42 16 42 5 0 9 12 10 28 0 33 21 133 31 147 3 6 9 28
13 50 4 22 11 45 16 50 4 6 11 34 15 63 3 28 10 50 14 47 3 -2 12 32 19 76 8
43 17 82 22 84 4 3 11 30 14 60 4 30 11 55 15 55 4 0 11 36 15 80 4 44 11 77
16 74 5 -3 9 66 9 161 0 92 -4 164 -9 161 -5 -3 -12 17 -15 45 -12 86 -96 200
-158 214 -16 4 -28 11 -28 16 0 12 -155 12 -178 0 -9 -5 -42 -22 -72 -36 -30
-15 -75 -42 -100 -58 -49 -34 -197 -177 -183 -177 4 -1 -3 -10 -16 -20 -13
-11 -21 -20 -17 -20 8 0 -56 -104 -66 -108 -4 -2 -8 -12 -8 -22 0 -10 -6 -25
-13 -32 -7 -7 -19 -39 -27 -71 -7 -32 -17 -60 -22 -63 -4 -3 -8 -13 -8 -22 0
-9 -6 -29 -14 -44 -8 -14 -17 -45 -21 -67 -4 -23 -10 -41 -14 -41 -4 0 -13
-34 -20 -75 -8 -42 -17 -78 -22 -80 -4 -3 -10 -23 -14 -45 -4 -22 -11 -40 -16
-40 -5 0 -9 -11 -9 -24 0 -14 -7 -31 -15 -40 -8 -8 -15 -23 -15 -33 0 -10 -8
-31 -19 -46 l-18 -28 -57 51 c-31 29 -56 58 -56 66 0 8 -4 14 -10 14 -14 0
-65 111 -61 134 1 10 -2 16 -7 12 -10 -6 -22 38 -22 79 0 13 -4 25 -9 27 -12
4 -35 217 -35 313 0 118 25 430 35 433 5 2 9 25 9 50 0 73 12 152 21 146 5 -3
9 16 9 43 0 26 7 89 16 138 8 50 20 122 26 160 6 39 14 72 18 75 4 3 11 35 14
73 4 37 12 67 17 67 5 0 9 15 9 33 0 48 47 280 61 302 4 6 10 38 14 72 4 35
11 60 16 57 5 -3 9 10 9 28 1 18 7 65 16 103 8 39 19 93 25 120 6 28 14 55 19
60 4 6 10 35 13 65 4 30 11 56 17 58 5 2 10 18 10 35 1 18 8 61 16 97 9 36 20
92 26 125 6 33 15 63 20 66 5 3 12 57 15 120 4 72 9 105 14 89 5 -18 7 -12 7
25 0 37 -2 43 -7 25 -5 -16 -10 17 -14 90 -4 63 -11 116 -17 118 -5 2 -10 9
-10 15 0 21 -51 109 -77 133 -45 42 -176 54 -236 22 -35 -18 -85 -63 -133
-121 -17 -20 -35 -33 -39 -29 -5 4 -5 1 0 -7 4 -7 4 -16 -1 -20 -9 -6 -37 -54
-78 -136 -12 -22 -24 -42 -27 -45 -3 -3 -9 -17 -13 -32 -3 -16 -11 -28 -16
-28 -6 0 -10 -9 -10 -20 0 -11 -11 -45 -25 -76 -14 -31 -25 -63 -25 -70 0 -8
-4 -14 -9 -14 -5 0 -12 -16 -15 -35 -4 -19 -11 -35 -16 -35 -6 0 -10 -9 -10
-20 0 -22 -43 -157 -59 -186 -5 -11 -13 -36 -16 -57 -3 -21 -10 -35 -16 -32
-5 4 -9 -6 -9 -22 -1 -29 -21 -111 -31 -128 -4 -5 -10 -26 -14 -45 -4 -19 -11
-39 -15 -45 -4 -5 -11 -29 -15 -53 -4 -23 -11 -40 -16 -36 -5 3 -9 -9 -9 -27
0 -30 -39 -176 -60 -224 -5 -11 -12 -40 -16 -65 -3 -25 -9 -47 -13 -50 -4 -3
-14 -39 -23 -80 -28 -126 -41 -170 -50 -170 -4 0 -8 -11 -8 -24 0 -38 -12 -86
-20 -81 -4 2 -10 -19 -14 -49 -3 -29 -15 -81 -26 -116 -11 -34 -20 -69 -20
-76 0 -8 -4 -14 -9 -14 -5 0 -11 -23 -15 -50 -4 -29 -11 -48 -16 -45 -6 4 -10
-4 -10 -17 0 -32 -23 -128 -31 -128 -4 0 -10 -16 -13 -35 -4 -19 -12 -45 -19
-59 l-13 -24 -13 31 c-13 29 -21 651 -30 2225 -1 87 -5 151 -10 148 -5 -3 -12
36 -16 87 -4 50 -11 97 -15 102 -4 6 -11 26 -15 45 -4 19 -11 41 -16 50 -11
19 -31 74 -29 79 1 2 -2 7 -7 10 -5 3 -19 23 -32 43 -48 80 -158 139 -253 137
-24 0 -68 -9 -98 -18z m199 -178 c17 -17 31 -35 31 -39 0 -4 10 -28 21 -53 12
-25 25 -55 30 -66 17 -40 29 -141 29 -236 0 -68 4 -99 12 -101 10 -4 14 -247
19 -1069 7 -1027 12 -1184 39 -1244 5 -11 12 -34 15 -51 3 -18 23 -50 44 -73
35 -37 42 -41 88 -41 46 0 53 3 91 45 22 24 43 58 47 75 4 18 11 27 18 23 6
-4 8 0 4 10 -3 9 -2 19 3 22 6 4 10 14 10 23 0 9 7 30 15 45 8 15 17 43 21 62
3 19 10 35 15 35 5 0 9 10 9 23 0 35 11 67 21 61 5 -3 9 8 9 25 0 16 7 54 15
83 8 29 20 73 27 98 7 25 15 47 19 50 3 3 9 25 13 50 4 24 10 47 14 50 4 3 15
41 25 85 33 150 40 175 47 175 4 0 10 23 14 50 4 28 11 50 16 50 6 0 10 12 10
26 0 30 18 113 29 134 5 9 12 35 16 58 4 23 10 44 15 47 4 3 11 28 15 55 4 28
10 48 14 46 4 -3 13 29 20 70 8 41 17 77 22 79 4 3 10 23 14 45 4 22 10 40 15
40 4 0 10 19 13 42 3 24 11 44 16 46 6 2 11 13 11 25 0 25 51 190 61 197 4 3
10 22 14 43 4 20 11 37 15 37 4 0 10 15 14 33 7 36 47 139 57 147 4 3 10 20
14 38 3 17 11 32 16 32 5 0 9 5 9 12 0 13 49 120 59 128 3 3 15 22 26 43 24
48 94 129 105 122 4 -3 10 2 14 10 8 22 52 18 75 -6 11 -12 25 -44 30 -71 17
-76 13 -322 -5 -393 -9 -33 -21 -87 -27 -120 -5 -33 -13 -62 -17 -65 -4 -3
-10 -31 -14 -62 -4 -32 -12 -58 -17 -58 -5 0 -9 -15 -9 -32 0 -18 -12 -78 -25
-133 -14 -55 -25 -110 -25 -122 0 -13 -4 -23 -9 -23 -5 0 -12 -29 -16 -65 -3
-36 -11 -65 -16 -65 -5 0 -9 -15 -9 -32 -1 -18 -7 -62 -15 -98 -9 -36 -20 -91
-26 -122 -6 -32 -15 -58 -20 -58 -5 0 -9 -13 -9 -29 0 -52 -13 -121 -21 -115
-5 3 -9 -12 -9 -32 0 -46 -18 -162 -30 -189 -5 -11 -11 -47 -15 -79 -3 -33 -9
-64 -14 -70 -5 -6 -11 -47 -15 -90 -3 -44 -10 -82 -15 -85 -4 -3 -11 -46 -15
-96 -4 -49 -11 -124 -17 -165 -34 -266 -32 -615 5 -775 9 -38 16 -80 16 -92 0
-13 4 -23 9 -23 5 0 12 -13 16 -29 21 -97 168 -286 252 -324 13 -6 23 -14 23
-19 0 -5 4 -7 9 -3 5 3 12 1 16 -5 9 -14 88 -13 103 2 7 7 12 9 12 5 0 -13 41
34 74 86 18 29 37 67 40 85 4 18 11 30 16 27 4 -3 11 14 14 38 4 23 13 54 20
68 7 14 16 43 20 65 5 21 11 44 16 49 4 6 11 31 14 58 4 26 11 45 15 43 4 -3
13 29 20 70 8 41 17 74 21 74 4 0 11 16 15 36 3 20 10 44 15 53 5 9 21 43 36
76 15 33 30 62 33 65 3 3 12 17 19 31 20 37 91 114 103 111 6 -1 8 1 5 6 -7
12 57 68 108 95 23 12 44 26 48 32 4 5 38 11 76 13 62 4 71 2 92 -19 28 -30
40 -61 40 -105 0 -19 5 -34 10 -34 6 0 10 -49 10 -126 0 -81 -4 -123 -10 -119
-6 4 -10 -14 -10 -47 0 -29 -7 -82 -16 -118 -8 -36 -20 -87 -26 -115 -6 -27
-14 -52 -18 -55 -4 -3 -10 -26 -14 -52 -4 -27 -10 -48 -14 -48 -4 0 -13 -30
-19 -67 -14 -75 -39 -177 -53 -208 -4 -11 -11 -38 -14 -60 -3 -22 -10 -41 -16
-43 -5 -2 -10 -17 -10 -33 0 -15 -11 -63 -25 -105 -14 -42 -25 -83 -25 -90 0
-8 -4 -14 -9 -14 -5 0 -12 -20 -15 -45 -4 -25 -11 -45 -17 -45 -5 0 -9 -9 -9
-20 0 -20 -50 -151 -61 -160 -4 -3 -10 -20 -14 -37 -3 -18 -11 -33 -16 -33 -5
0 -9 -8 -9 -17 0 -21 -79 -185 -94 -195 -6 -4 -8 -10 -4 -13 3 -3 -11 -38 -33
-76 -21 -38 -41 -79 -44 -89 -4 -11 -11 -20 -17 -20 -6 0 -9 -3 -5 -6 3 -3 -8
-27 -24 -54 -16 -26 -29 -52 -29 -59 0 -6 -4 -11 -10 -11 -5 0 -10 -6 -10 -12
0 -7 -18 -40 -40 -73 -22 -33 -44 -67 -50 -75 -85 -131 -113 -164 -124 -152
-4 3 -4 -1 0 -11 3 -9 2 -17 -3 -17 -6 0 -14 -9 -19 -19 -27 -56 -228 -266
-245 -255 -7 4 -9 3 -5 -4 10 -17 -193 -182 -224 -182 -6 0 -10 -4 -10 -8 0
-10 -111 -68 -122 -64 -5 1 -8 -2 -8 -7 0 -5 -13 -12 -30 -16 -16 -4 -30 -10
-30 -15 0 -5 -14 -11 -30 -15 -17 -4 -43 -13 -59 -21 -15 -8 -50 -17 -77 -21
-27 -3 -52 -10 -55 -16 -4 -5 -37 -11 -75 -14 -38 -3 -75 -11 -83 -17 -19 -15
-579 -16 -589 0 -4 6 -36 14 -71 18 -36 3 -67 10 -70 14 -3 4 -34 13 -68 20
-34 7 -74 19 -90 27 -15 8 -34 15 -40 15 -7 0 -13 5 -13 10 0 6 -9 10 -19 10
-11 0 -27 7 -35 16 -9 8 -16 13 -16 9 0 -7 -87 38 -130 66 -14 9 -50 33 -80
52 -116 75 -267 208 -378 331 -73 81 -192 232 -192 245 0 5 -7 11 -15 15 -8 3
-15 12 -15 21 0 8 -4 15 -9 15 -5 0 -13 9 -16 20 -3 11 -12 26 -19 32 -43 45
-186 330 -193 387 -3 22 -9 38 -13 36 -5 -3 -11 19 -15 47 -4 29 -11 58 -15
63 -4 6 -11 30 -15 55 -4 25 -11 50 -15 55 -5 6 -14 47 -21 92 -7 45 -16 80
-20 77 -4 -2 -10 18 -14 44 -4 26 -10 52 -15 57 -4 6 -12 30 -18 55 -6 25 -17
72 -26 105 -8 33 -15 72 -16 88 0 15 -4 27 -9 27 -5 0 -12 19 -16 43 -3 23
-10 51 -15 62 -4 11 -13 40 -20 65 -6 25 -17 70 -25 100 -8 30 -14 70 -15 88
0 18 -4 31 -9 28 -5 -3 -12 14 -16 39 -3 25 -13 57 -21 73 -7 15 -14 32 -14
38 0 7 -7 24 -15 40 -8 16 -17 48 -21 71 -3 24 -10 43 -15 43 -4 0 -11 16 -15
35 -3 19 -10 35 -14 35 -4 0 -11 16 -14 35 -4 19 -13 47 -21 62 -9 15 -18 45
-21 66 -4 20 -10 37 -14 37 -5 0 -11 14 -15 31 -4 17 -13 42 -21 57 -8 15 -14
32 -14 38 0 7 -7 25 -15 40 -8 16 -18 46 -21 67 -4 20 -10 37 -14 37 -5 0 -12
14 -15 32 -4 18 -11 39 -16 48 -15 26 -59 163 -59 182 0 10 -4 18 -10 18 -5 0
-12 16 -16 37 -4 20 -13 48 -20 62 -8 14 -14 33 -14 42 0 8 -4 19 -9 25 -6 5
-16 39 -23 77 -7 37 -16 67 -20 67 -4 0 -10 17 -13 38 -4 20 -10 46 -15 57
-22 53 -51 166 -57 223 -3 34 -10 62 -14 62 -5 0 -9 32 -9 70 l0 70 43 -6 c23
-4 58 -16 77 -27 36 -22 140 -124 140 -138 0 -4 6 -14 13 -21 18 -17 97 -154
97 -166 0 -6 3 -12 8 -14 9 -4 92 -171 92 -186 0 -7 5 -12 10 -12 6 0 10 -5
10 -11 0 -5 12 -36 27 -67 14 -31 26 -62 26 -69 0 -7 4 -13 9 -13 4 0 8 -5 8
-11 0 -6 16 -43 35 -83 19 -40 38 -87 41 -104 4 -18 10 -32 15 -32 4 0 11 -16
15 -35 3 -19 10 -35 14 -35 5 0 11 -13 15 -30 4 -16 10 -30 14 -30 4 0 14 -25
21 -55 7 -30 17 -55 21 -55 5 0 11 -16 15 -35 3 -19 10 -35 14 -35 5 0 11 -13
15 -29 3 -16 15 -46 26 -67 10 -21 19 -46 19 -56 0 -10 5 -18 10 -18 6 0 10
-7 10 -16 0 -9 6 -30 14 -47 44 -96 56 -127 56 -141 0 -8 5 -18 10 -21 6 -4 8
-11 5 -16 -4 -5 -2 -9 2 -9 5 0 20 -11 34 -24 14 -13 36 -27 50 -31 13 -4 27
-13 31 -18 9 -14 147 -15 156 -1 4 6 14 13 23 16 26 10 84 89 105 143 22 59
27 236 7 276 -14 29 -33 119 -33 159 0 15 -4 30 -10 32 -5 2 -13 32 -16 68 -4
36 -10 70 -15 75 -4 6 -11 35 -14 65 -4 30 -10 64 -15 75 -10 25 -30 176 -30
232 0 23 -4 43 -10 45 -5 2 -12 41 -15 88 -4 47 -10 94 -15 105 -5 11 -14 54
-20 95 -6 41 -17 116 -25 165 -7 50 -14 118 -14 153 -1 35 -5 61 -10 58 -5 -3
-12 46 -16 112 -3 64 -10 126 -15 137 -12 27 -33 322 -37 524 -3 139 -1 169
13 200 31 64 74 91 147 91 46 0 58 -4 89 -32 81 -75 148 -273 148 -440 0 -32
4 -58 9 -58 5 0 12 -39 16 -87 3 -49 10 -95 14 -103 5 -9 12 -54 16 -100 4
-46 11 -91 15 -100 9 -17 30 -223 30 -294 0 -26 4 -45 9 -42 9 6 21 -72 21
-140 0 -22 3 -44 8 -48 4 -4 12 -44 19 -89 6 -45 18 -129 27 -187 8 -58 16
-122 16 -142 0 -21 4 -38 9 -38 6 0 13 -31 17 -70 3 -38 10 -70 14 -70 4 0 11
-21 15 -47 4 -27 10 -52 15 -58 4 -5 13 -40 21 -77 7 -38 16 -68 20 -68 4 0
10 -13 14 -30 4 -16 10 -30 13 -30 4 0 17 -17 30 -38 13 -21 39 -48 58 -61 65
-45 178 -10 200 63 4 12 10 23 15 26 4 3 11 43 15 88 4 45 10 79 14 77 4 -2
10 46 13 108 4 62 12 159 17 217 21 213 29 530 29 1161 1 458 4 648 12 656 8
8 9 39 5 95 -8 110 -8 113 2 257 6 68 14 126 20 130 5 3 12 20 16 36 8 39 59
95 111 123 31 17 54 21 101 19 53 -2 65 -7 93 -34z"/>
</g>
</svg>
